<svg width="80" height="80" viewBox="0 0 80 80" fill="none" xmlns="http://www.w3.org/2000/svg">
<mask id="mask0_3_55" style="mask-type:alpha" maskUnits="userSpaceOnUse" x="0" y="0" width="80" height="80">
<rect width="80" height="80" fill="#D9D9D9"/>
</mask>
<g mask="url(#mask0_3_55)">
<path d="M39.8333 60C41 60 41.9861 59.5972 42.7916 58.7917C43.5972 57.9861 44 57 44 55.8334C44 54.6667 43.5972 53.6806 42.7916 52.875C41.9861 52.0695 41 51.6667 39.8333 51.6667C38.6666 51.6667 37.6805 52.0695 36.875 52.875C36.0694 53.6806 35.6666 54.6667 35.6666 55.8334C35.6666 57 36.0694 57.9861 36.875 58.7917C37.6805 59.5972 38.6666 60 39.8333 60ZM40 73.3334C35.3888 73.3334 31.0555 72.4584 27 70.7084C22.9444 68.9584 19.4166 66.5834 16.4166 63.5834C13.4166 60.5834 11.0416 57.0556 9.29163 53C7.54163 48.9445 6.66663 44.6111 6.66663 40C6.66663 35.3889 7.54163 31.0556 9.29163 27C11.0416 22.9445 13.4166 19.4167 16.4166 16.4167C19.4166 13.4167 22.9444 11.0417 27 9.29169C31.0555 7.54169 35.3888 6.66669 40 6.66669C44.6111 6.66669 48.9444 7.54169 53 9.29169C57.0555 11.0417 60.5833 13.4167 63.5833 16.4167C66.5833 19.4167 68.9583 22.9445 70.7083 27C72.4583 31.0556 73.3333 35.3889 73.3333 40C73.3333 44.6111 72.4583 48.9445 70.7083 53C68.9583 57.0556 66.5833 60.5834 63.5833 63.5834C60.5833 66.5834 57.0555 68.9584 53 70.7084C48.9444 72.4584 44.6111 73.3334 40 73.3334ZM40 66.6667C47.4444 66.6667 53.75 64.0834 58.9166 58.9167C64.0833 53.75 66.6666 47.4445 66.6666 40C66.6666 32.5556 64.0833 26.25 58.9166 21.0834C53.75 15.9167 47.4444 13.3334 40 13.3334C32.5555 13.3334 26.25 15.9167 21.0833 21.0834C15.9166 26.25 13.3333 32.5556 13.3333 40C13.3333 47.4445 15.9166 53.75 21.0833 58.9167C26.25 64.0834 32.5555 66.6667 40 66.6667ZM40.3333 25.6667C41.7222 25.6667 42.9305 26.1111 43.9583 27C44.9861 27.8889 45.5 29 45.5 30.3334C45.5 31.5556 45.125 32.6389 44.375 33.5834C43.625 34.5278 42.7777 35.4167 41.8333 36.25C40.5555 37.3611 39.4305 38.5834 38.4583 39.9167C37.4861 41.25 37 42.75 37 44.4167C37 45.1945 37.2916 45.8472 37.875 46.375C38.4583 46.9028 39.1388 47.1667 39.9166 47.1667C40.75 47.1667 41.4583 46.8889 42.0416 46.3334C42.625 45.7778 43 45.0834 43.1666 44.25C43.3888 43.0834 43.8888 42.0417 44.6666 41.125C45.4444 40.2084 46.2777 39.3334 47.1666 38.5C48.4444 37.2778 49.5416 35.9445 50.4583 34.5C51.375 33.0556 51.8333 31.4445 51.8333 29.6667C51.8333 26.8334 50.6805 24.5139 48.375 22.7084C46.0694 20.9028 43.3888 20 40.3333 20C38.2222 20 36.2083 20.4445 34.2916 21.3334C32.375 22.2222 30.9166 23.5834 29.9166 25.4167C29.5277 26.0834 29.4027 26.7917 29.5416 27.5417C29.6805 28.2917 30.0555 28.8611 30.6666 29.25C31.4444 29.6945 32.25 29.8334 33.0833 29.6667C33.9166 29.5 34.6111 29.0278 35.1666 28.25C35.7777 27.4167 36.5416 26.7778 37.4583 26.3334C38.375 25.8889 39.3333 25.6667 40.3333 25.6667Z" fill="#E80088"/>
</g>
</svg>
