<svg width="51" height="51" viewBox="0 0 51 51" fill="none" xmlns="http://www.w3.org/2000/svg">
<mask id="mask0_8_75" style="mask-type:alpha" maskUnits="userSpaceOnUse" x="0" y="0" width="51" height="51">
<rect x="0.272705" y="0.909119" width="50" height="50" fill="#D9D9D9"/>
</mask>
<g mask="url(#mask0_8_75)">
<path d="M33.6062 18.4091L15.0645 36.9508C14.6826 37.3327 14.1965 37.5237 13.6062 37.5237C13.0159 37.5237 12.5298 37.3327 12.1479 36.9508C11.7659 36.5689 11.575 36.0827 11.575 35.4925C11.575 34.9022 11.7659 34.4161 12.1479 34.0341L30.6895 15.4925H14.8562C14.2659 15.4925 13.7711 15.2928 13.3718 14.8935C12.9725 14.4942 12.7729 13.9994 12.7729 13.4091C12.7729 12.8189 12.9725 12.3241 13.3718 11.9248C13.7711 11.5255 14.2659 11.3258 14.8562 11.3258H35.6895C36.2798 11.3258 36.7746 11.5255 37.1739 11.9248C37.5732 12.3241 37.7729 12.8189 37.7729 13.4091V34.2425C37.7729 34.8327 37.5732 35.3275 37.1739 35.7268C36.7746 36.1262 36.2798 36.3258 35.6895 36.3258C35.0993 36.3258 34.6045 36.1262 34.2052 35.7268C33.8059 35.3275 33.6062 34.8327 33.6062 34.2425V18.4091Z" fill="white"/>
</g>
</svg>
