<svg width="80" height="80" viewBox="0 0 80 80" fill="none" xmlns="http://www.w3.org/2000/svg">
<mask id="mask0_3_31" style="mask-type:alpha" maskUnits="userSpaceOnUse" x="0" y="0" width="80" height="80">
<rect width="80" height="80" fill="#D9D9D9"/>
</mask>
<g mask="url(#mask0_3_31)">
<path d="M16.6667 73.3333C14.8333 73.3333 13.2639 72.6805 11.9583 71.375C10.6528 70.0694 10 68.5 10 66.6667V20C10 18.1667 10.6528 16.5972 11.9583 15.2917C13.2639 13.9861 14.8333 13.3333 16.6667 13.3333H20V9.99999C20 9.05555 20.3194 8.26388 20.9583 7.62499C21.5972 6.9861 22.3889 6.66666 23.3333 6.66666C24.2778 6.66666 25.0694 6.9861 25.7083 7.62499C26.3472 8.26388 26.6667 9.05555 26.6667 9.99999V13.3333H53.3333V9.99999C53.3333 9.05555 53.6528 8.26388 54.2917 7.62499C54.9306 6.9861 55.7222 6.66666 56.6667 6.66666C57.6111 6.66666 58.4028 6.9861 59.0417 7.62499C59.6806 8.26388 60 9.05555 60 9.99999V13.3333H63.3333C65.1667 13.3333 66.7361 13.9861 68.0417 15.2917C69.3472 16.5972 70 18.1667 70 20V66.6667C70 68.5 69.3472 70.0694 68.0417 71.375C66.7361 72.6805 65.1667 73.3333 63.3333 73.3333H16.6667ZM16.6667 66.6667H63.3333V33.3333H16.6667V66.6667ZM16.6667 26.6667H63.3333V20H16.6667V26.6667ZM40 46.6667C39.0556 46.6667 38.2639 46.3472 37.625 45.7083C36.9861 45.0694 36.6667 44.2778 36.6667 43.3333C36.6667 42.3889 36.9861 41.5972 37.625 40.9583C38.2639 40.3194 39.0556 40 40 40C40.9444 40 41.7361 40.3194 42.375 40.9583C43.0139 41.5972 43.3333 42.3889 43.3333 43.3333C43.3333 44.2778 43.0139 45.0694 42.375 45.7083C41.7361 46.3472 40.9444 46.6667 40 46.6667ZM26.6667 46.6667C25.7222 46.6667 24.9306 46.3472 24.2917 45.7083C23.6528 45.0694 23.3333 44.2778 23.3333 43.3333C23.3333 42.3889 23.6528 41.5972 24.2917 40.9583C24.9306 40.3194 25.7222 40 26.6667 40C27.6111 40 28.4028 40.3194 29.0417 40.9583C29.6806 41.5972 30 42.3889 30 43.3333C30 44.2778 29.6806 45.0694 29.0417 45.7083C28.4028 46.3472 27.6111 46.6667 26.6667 46.6667ZM53.3333 46.6667C52.3889 46.6667 51.5972 46.3472 50.9583 45.7083C50.3194 45.0694 50 44.2778 50 43.3333C50 42.3889 50.3194 41.5972 50.9583 40.9583C51.5972 40.3194 52.3889 40 53.3333 40C54.2778 40 55.0694 40.3194 55.7083 40.9583C56.3472 41.5972 56.6667 42.3889 56.6667 43.3333C56.6667 44.2778 56.3472 45.0694 55.7083 45.7083C55.0694 46.3472 54.2778 46.6667 53.3333 46.6667ZM40 60C39.0556 60 38.2639 59.6805 37.625 59.0417C36.9861 58.4028 36.6667 57.6111 36.6667 56.6667C36.6667 55.7222 36.9861 54.9305 37.625 54.2917C38.2639 53.6528 39.0556 53.3333 40 53.3333C40.9444 53.3333 41.7361 53.6528 42.375 54.2917C43.0139 54.9305 43.3333 55.7222 43.3333 56.6667C43.3333 57.6111 43.0139 58.4028 42.375 59.0417C41.7361 59.6805 40.9444 60 40 60ZM26.6667 60C25.7222 60 24.9306 59.6805 24.2917 59.0417C23.6528 58.4028 23.3333 57.6111 23.3333 56.6667C23.3333 55.7222 23.6528 54.9305 24.2917 54.2917C24.9306 53.6528 25.7222 53.3333 26.6667 53.3333C27.6111 53.3333 28.4028 53.6528 29.0417 54.2917C29.6806 54.9305 30 55.7222 30 56.6667C30 57.6111 29.6806 58.4028 29.0417 59.0417C28.4028 59.6805 27.6111 60 26.6667 60ZM53.3333 60C52.3889 60 51.5972 59.6805 50.9583 59.0417C50.3194 58.4028 50 57.6111 50 56.6667C50 55.7222 50.3194 54.9305 50.9583 54.2917C51.5972 53.6528 52.3889 53.3333 53.3333 53.3333C54.2778 53.3333 55.0694 53.6528 55.7083 54.2917C56.3472 54.9305 56.6667 55.7222 56.6667 56.6667C56.6667 57.6111 56.3472 58.4028 55.7083 59.0417C55.0694 59.6805 54.2778 60 53.3333 60Z" fill="#E80088"/>
</g>
</svg>
