<svg width="80" height="80" viewBox="0 0 80 80" fill="none" xmlns="http://www.w3.org/2000/svg">
<mask id="mask0_3_61" style="mask-type:alpha" maskUnits="userSpaceOnUse" x="0" y="0" width="80" height="80">
<rect width="80" height="80" fill="#D9D9D9"/>
</mask>
<g mask="url(#mask0_3_61)">
<path d="M36.0833 73.3334C34.5833 73.3334 33.2916 72.8334 32.2083 71.8334C31.1249 70.8334 30.4722 69.6111 30.2499 68.1667L29.4999 62.6667C28.7777 62.3889 28.0972 62.0556 27.4583 61.6667C26.8194 61.2778 26.1944 60.8611 25.5833 60.4167L20.4166 62.5834C19.0277 63.1945 17.6388 63.25 16.2499 62.75C14.861 62.25 13.7777 61.3611 12.9999 60.0834L9.08327 53.25C8.30549 51.9722 8.08327 50.6111 8.4166 49.1667C8.74993 47.7222 9.49993 46.5278 10.6666 45.5834L15.0833 42.25C15.0277 41.8611 14.9999 41.4861 14.9999 41.125V38.875C14.9999 38.5139 15.0277 38.1389 15.0833 37.75L10.6666 34.4167C9.49993 33.4722 8.74993 32.2778 8.4166 30.8334C8.08327 29.3889 8.30549 28.0278 9.08327 26.75L12.9999 19.9167C13.7777 18.6389 14.861 17.75 16.2499 17.25C17.6388 16.75 19.0277 16.8056 20.4166 17.4167L25.5833 19.5834C26.1944 19.1389 26.8333 18.7222 27.4999 18.3334C28.1666 17.9445 28.8333 17.6111 29.4999 17.3334L30.2499 11.8334C30.4722 10.3889 31.1249 9.16669 32.2083 8.16669C33.2916 7.16669 34.5833 6.66669 36.0833 6.66669H43.9166C45.4166 6.66669 46.7083 7.16669 47.7916 8.16669C48.8749 9.16669 49.5277 10.3889 49.7499 11.8334L50.4999 17.3334C51.2222 17.6111 51.9027 17.9445 52.5416 18.3334C53.1805 18.7222 53.8055 19.1389 54.4166 19.5834L59.5833 17.4167C60.9722 16.8056 62.3611 16.75 63.7499 17.25C65.1388 17.75 66.2222 18.6389 66.9999 19.9167L70.9166 26.75C71.6944 28.0278 71.9166 29.3889 71.5833 30.8334C71.2499 32.2778 70.4999 33.4722 69.3333 34.4167L64.9166 37.75C64.9722 38.1389 64.9999 38.5139 64.9999 38.875V41.125C64.9999 41.4861 64.9444 41.8611 64.8333 42.25L69.2499 45.5834C70.4166 46.5278 71.1666 47.7222 71.4999 49.1667C71.8333 50.6111 71.6111 51.9722 70.8333 53.25L66.8333 60.0834C66.0555 61.3611 64.9722 62.25 63.5833 62.75C62.1944 63.25 60.8055 63.1945 59.4166 62.5834L54.4166 60.4167C53.8055 60.8611 53.1666 61.2778 52.4999 61.6667C51.8333 62.0556 51.1666 62.3889 50.4999 62.6667L49.7499 68.1667C49.5277 69.6111 48.8749 70.8334 47.7916 71.8334C46.7083 72.8334 45.4166 73.3334 43.9166 73.3334H36.0833ZM36.6666 66.6667H43.2499L44.4166 57.8334C46.1388 57.3889 47.736 56.7361 49.2083 55.875C50.6805 55.0139 52.0277 53.9722 53.2499 52.75L61.4999 56.1667L64.7499 50.5L57.5833 45.0834C57.861 44.3056 58.0555 43.4861 58.1666 42.625C58.2777 41.7639 58.3333 40.8889 58.3333 40C58.3333 39.1111 58.2777 38.2361 58.1666 37.375C58.0555 36.5139 57.861 35.6945 57.5833 34.9167L64.7499 29.5L61.4999 23.8334L53.2499 27.3334C52.0277 26.0556 50.6805 24.9861 49.2083 24.125C47.736 23.2639 46.1388 22.6111 44.4166 22.1667L43.3333 13.3334H36.7499L35.5833 22.1667C33.861 22.6111 32.2638 23.2639 30.7916 24.125C29.3194 24.9861 27.9722 26.0278 26.7499 27.25L18.4999 23.8334L15.2499 29.5L22.4166 34.8334C22.1388 35.6667 21.9444 36.5 21.8333 37.3334C21.7222 38.1667 21.6666 39.0556 21.6666 40C21.6666 40.8889 21.7222 41.75 21.8333 42.5834C21.9444 43.4167 22.1388 44.25 22.4166 45.0834L15.2499 50.5L18.4999 56.1667L26.7499 52.6667C27.9722 53.9445 29.3194 55.0139 30.7916 55.875C32.2638 56.7361 33.861 57.3889 35.5833 57.8334L36.6666 66.6667ZM40.1666 51.6667C43.3888 51.6667 46.1388 50.5278 48.4166 48.25C50.6944 45.9722 51.8333 43.2222 51.8333 40C51.8333 36.7778 50.6944 34.0278 48.4166 31.75C46.1388 29.4722 43.3888 28.3334 40.1666 28.3334C36.8888 28.3334 34.1249 29.4722 31.8749 31.75C29.6249 34.0278 28.4999 36.7778 28.4999 40C28.4999 43.2222 29.6249 45.9722 31.8749 48.25C34.1249 50.5278 36.8888 51.6667 40.1666 51.6667Z" fill="#E80088"/>
</g>
</svg>
