<svg width="80" height="80" viewBox="0 0 80 80" fill="none" xmlns="http://www.w3.org/2000/svg">
<mask id="mask0_3_37" style="mask-type:alpha" maskUnits="userSpaceOnUse" x="0" y="0" width="80" height="80">
<rect width="80" height="80" fill="#D9D9D9"/>
</mask>
<g mask="url(#mask0_3_37)">
<path d="M40.0001 73.3333C35.389 73.3333 31.0556 72.4583 27.0001 70.7083C22.9445 68.9583 19.4167 66.5833 16.4167 63.5833C13.4167 60.5833 11.0417 57.0556 9.29175 53C7.54175 48.9445 6.66675 44.6111 6.66675 40C6.66675 35.3889 7.54175 31.0556 9.29175 27C11.0417 22.9444 13.4167 19.4167 16.4167 16.4167C19.4167 13.4167 22.9445 11.0417 27.0001 9.29167C31.0556 7.54167 35.389 6.66667 40.0001 6.66667C44.6112 6.66667 48.9445 7.54167 53.0001 9.29167C57.0556 11.0417 60.5834 13.4167 63.5834 16.4167C66.5834 19.4167 68.9584 22.9444 70.7084 27C72.4584 31.0556 73.3334 35.3889 73.3334 40V44.8333C73.3334 48.1111 72.2084 50.9028 69.9584 53.2083C67.7084 55.5139 64.9445 56.6667 61.6667 56.6667C59.7223 56.6667 57.889 56.25 56.1667 55.4167C54.4445 54.5833 53.0001 53.3889 51.8334 51.8333C50.2223 53.4444 48.4029 54.6528 46.3751 55.4583C44.3473 56.2639 42.2223 56.6667 40.0001 56.6667C35.389 56.6667 31.4584 55.0417 28.2084 51.7917C24.9584 48.5417 23.3334 44.6111 23.3334 40C23.3334 35.3889 24.9584 31.4583 28.2084 28.2083C31.4584 24.9583 35.389 23.3333 40.0001 23.3333C44.6112 23.3333 48.5417 24.9583 51.7917 28.2083C55.0417 31.4583 56.6667 35.3889 56.6667 40V44.8333C56.6667 46.2778 57.139 47.5 58.0834 48.5C59.0279 49.5 60.2223 50 61.6667 50C63.1112 50 64.3056 49.5 65.2501 48.5C66.1945 47.5 66.6667 46.2778 66.6667 44.8333V40C66.6667 32.5556 64.0834 26.25 58.9167 21.0833C53.7501 15.9167 47.4445 13.3333 40.0001 13.3333C32.5556 13.3333 26.2501 15.9167 21.0834 21.0833C15.9167 26.25 13.3334 32.5556 13.3334 40C13.3334 47.4444 15.9167 53.75 21.0834 58.9167C26.2501 64.0833 32.5556 66.6667 40.0001 66.6667H53.3334C54.2779 66.6667 55.0695 66.9861 55.7084 67.625C56.3473 68.2639 56.6667 69.0556 56.6667 70C56.6667 70.9444 56.3473 71.7361 55.7084 72.375C55.0695 73.0139 54.2779 73.3333 53.3334 73.3333H40.0001ZM40.0001 50C42.7779 50 45.139 49.0278 47.0834 47.0833C49.0279 45.1389 50.0001 42.7778 50.0001 40C50.0001 37.2222 49.0279 34.8611 47.0834 32.9167C45.139 30.9722 42.7779 30 40.0001 30C37.2223 30 34.8612 30.9722 32.9167 32.9167C30.9723 34.8611 30.0001 37.2222 30.0001 40C30.0001 42.7778 30.9723 45.1389 32.9167 47.0833C34.8612 49.0278 37.2223 50 40.0001 50Z" fill="#E80088"/>
</g>
</svg>
