<svg width="80" height="80" viewBox="0 0 80 80" fill="none" xmlns="http://www.w3.org/2000/svg">
<mask id="mask0_3_13" style="mask-type:alpha" maskUnits="userSpaceOnUse" x="0" y="0" width="80" height="80">
<rect width="80" height="80" fill="#D9D9D9"/>
</mask>
<g mask="url(#mask0_3_13)">
<path d="M9.99996 70C9.05551 70 8.26385 69.6806 7.62496 69.0417C6.98607 68.4028 6.66663 67.6111 6.66663 66.6667C6.66663 65.7222 6.98607 64.9306 7.62496 64.2917C8.26385 63.6528 9.05551 63.3333 9.99996 63.3333H70C70.9444 63.3333 71.7361 63.6528 72.375 64.2917C73.0138 64.9306 73.3333 65.7222 73.3333 66.6667C73.3333 67.6111 73.0138 68.4028 72.375 69.0417C71.7361 69.6806 70.9444 70 70 70H9.99996ZM15 60C13.6111 60 12.4305 59.5139 11.4583 58.5417C10.4861 57.5694 9.99996 56.3889 9.99996 55V41.6667C9.99996 40.2778 10.4861 39.0972 11.4583 38.125C12.4305 37.1528 13.6111 36.6667 15 36.6667C16.3888 36.6667 17.5694 37.1528 18.5416 38.125C19.5138 39.0972 20 40.2778 20 41.6667V55C20 56.3889 19.5138 57.5694 18.5416 58.5417C17.5694 59.5139 16.3888 60 15 60ZM31.6666 60C30.2777 60 29.0972 59.5139 28.125 58.5417C27.1527 57.5694 26.6666 56.3889 26.6666 55V25C26.6666 23.6111 27.1527 22.4306 28.125 21.4583C29.0972 20.4861 30.2777 20 31.6666 20C33.0555 20 34.2361 20.4861 35.2083 21.4583C36.1805 22.4306 36.6666 23.6111 36.6666 25V55C36.6666 56.3889 36.1805 57.5694 35.2083 58.5417C34.2361 59.5139 33.0555 60 31.6666 60ZM48.3333 60C46.9444 60 45.7638 59.5139 44.7916 58.5417C43.8194 57.5694 43.3333 56.3889 43.3333 55V35C43.3333 33.6111 43.8194 32.4306 44.7916 31.4583C45.7638 30.4861 46.9444 30 48.3333 30C49.7222 30 50.9027 30.4861 51.875 31.4583C52.8472 32.4306 53.3333 33.6111 53.3333 35V55C53.3333 56.3889 52.8472 57.5694 51.875 58.5417C50.9027 59.5139 49.7222 60 48.3333 60ZM65 60C63.6111 60 62.4305 59.5139 61.4583 58.5417C60.4861 57.5694 60 56.3889 60 55V15C60 13.6111 60.4861 12.4306 61.4583 11.4583C62.4305 10.4861 63.6111 10 65 10C66.3888 10 67.5694 10.4861 68.5416 11.4583C69.5138 12.4306 70 13.6111 70 15V55C70 56.3889 69.5138 57.5694 68.5416 58.5417C67.5694 59.5139 66.3888 60 65 60Z" fill="#E80088"/>
</g>
</svg>
