<svg width="80" height="80" viewBox="0 0 80 80" fill="none" xmlns="http://www.w3.org/2000/svg">
<mask id="mask0_3_25" style="mask-type:alpha" maskUnits="userSpaceOnUse" x="0" y="0" width="80" height="80">
<rect width="80" height="80" fill="#D9D9D9"/>
</mask>
<g mask="url(#mask0_3_25)">
<path d="M13.3333 66.6667C11.5 66.6667 9.93051 66.0139 8.62496 64.7083C7.3194 63.4028 6.66663 61.8333 6.66663 60V20C6.66663 18.1667 7.3194 16.5972 8.62496 15.2917C9.93051 13.9861 11.5 13.3333 13.3333 13.3333H66.6666C68.5 13.3333 70.0694 13.9861 71.375 15.2917C72.6805 16.5972 73.3333 18.1667 73.3333 20V60C73.3333 61.8333 72.6805 63.4028 71.375 64.7083C70.0694 66.0139 68.5 66.6667 66.6666 66.6667H13.3333ZM66.6666 26.6667L41.75 42.25C41.4722 42.4167 41.1805 42.5417 40.875 42.625C40.5694 42.7083 40.2777 42.75 40 42.75C39.7222 42.75 39.4305 42.7083 39.125 42.625C38.8194 42.5417 38.5277 42.4167 38.25 42.25L13.3333 26.6667V60H66.6666V26.6667ZM40 36.6667L66.6666 20H13.3333L40 36.6667ZM13.3333 27.5V22.5833V22.6667V22.625V27.5Z" fill="#E80088"/>
</g>
</svg>
