<svg width="1152" height="1152" viewBox="0 0 1152 1152" fill="none" xmlns="http://www.w3.org/2000/svg">
<path d="M1055.99 594.42C1056.02 560.994 1053.06 527.633 1047.13 494.736H588.144V683.25H850.424C839.126 744.168 804.791 795.782 753.176 830.339V952.618H910.677C1002.83 867.776 1055.99 742.838 1055.99 594.42Z" fill="#4285F4"/>
<path d="M588.144 1070.69C719.727 1070.69 830.044 1027.05 910.677 952.618L753.177 830.338C709.537 859.579 653.714 876.858 588.144 876.858C461.213 876.858 353.776 791.13 315.453 675.939H152.636V802.206C232.826 961.479 397.636 1070.69 588.144 1070.69Z" fill="#34A853"/>
<path d="M315.453 675.94C295.073 615.892 295.073 550.797 315.453 490.749V364.482H152.636C118.55 432.404 100.8 507.349 100.8 583.344C100.8 659.339 118.55 734.284 152.636 802.206L315.453 675.94Z" fill="#FBBC05"/>
<path d="M588.144 289.83C659.695 289.83 723.936 314.419 774.442 362.71L914.222 222.931C829.821 144.291 719.504 96 588.143 96C397.636 96 232.825 205.21 152.635 364.482L315.453 490.75C353.776 375.56 461.213 289.831 588.144 289.831V289.83Z" fill="#EA4335"/>
</svg>
