<svg width="1474" height="1474" viewBox="0 0 1474 1474" fill="none" xmlns="http://www.w3.org/2000/svg">
<circle cx="737" cy="737" r="491" stroke="#C3C3C3" stroke-width="80"/>
<circle cx="737" cy="737" r="491" stroke="#E3E3E3" stroke-width="80"/>
<mask id="path-2-inside-1_327_271" fill="white">
<path d="M465.08 1145C452.618 1163.7 457.606 1189.11 477.204 1200.11C537.434 1233.89 603.798 1255.67 672.606 1264.08C754.905 1274.14 838.414 1264.78 916.447 1236.76C994.48 1208.74 1064.87 1162.84 1121.97 1102.73C1179.08 1042.62 1221.31 969.973 1245.3 890.608C1269.28 811.242 1274.35 727.363 1260.09 645.688C1245.83 564.012 1212.65 486.81 1163.19 420.265C1113.74 353.719 1049.39 299.679 975.294 262.471C913.346 231.363 846.027 212.744 777.164 207.521C754.757 205.821 736.531 224.217 736.551 246.688V246.688C736.572 269.159 754.842 287.168 777.223 289.178C833.366 294.221 888.186 309.788 938.775 335.193C1001.51 366.698 1056 412.457 1097.88 468.804C1139.75 525.152 1167.85 590.523 1179.93 659.681C1192 728.84 1187.71 799.864 1167.4 867.067C1147.09 934.27 1111.33 995.783 1062.98 1046.68C1014.62 1097.58 955.021 1136.45 888.947 1160.17C822.873 1183.9 752.161 1191.82 682.475 1183.31C626.283 1176.44 572.016 1159.04 522.477 1132.15C502.729 1121.43 477.543 1126.3 465.08 1145V1145Z"/>
</mask>
<path d="M465.08 1145C452.618 1163.7 457.606 1189.11 477.204 1200.11C537.434 1233.89 603.798 1255.67 672.606 1264.08C754.905 1274.14 838.414 1264.78 916.447 1236.76C994.48 1208.74 1064.87 1162.84 1121.97 1102.73C1179.08 1042.62 1221.31 969.973 1245.3 890.608C1269.28 811.242 1274.35 727.363 1260.09 645.688C1245.83 564.012 1212.65 486.81 1163.19 420.265C1113.74 353.719 1049.39 299.679 975.294 262.471C913.346 231.363 846.027 212.744 777.164 207.521C754.757 205.821 736.531 224.217 736.551 246.688V246.688C736.572 269.159 754.842 287.168 777.223 289.178C833.366 294.221 888.186 309.788 938.775 335.193C1001.51 366.698 1056 412.457 1097.88 468.804C1139.75 525.152 1167.85 590.523 1179.93 659.681C1192 728.84 1187.71 799.864 1167.4 867.067C1147.09 934.27 1111.33 995.783 1062.98 1046.68C1014.62 1097.58 955.021 1136.45 888.947 1160.17C822.873 1183.9 752.161 1191.82 682.475 1183.31C626.283 1176.44 572.016 1159.04 522.477 1132.15C502.729 1121.43 477.543 1126.3 465.08 1145V1145Z" stroke="#C3C3C3" stroke-width="160" mask="url(#path-2-inside-1_327_271)"/>
<path d="M465.08 1145C452.618 1163.7 457.606 1189.11 477.204 1200.11C537.434 1233.89 603.798 1255.67 672.606 1264.08C754.905 1274.14 838.414 1264.78 916.447 1236.76C994.48 1208.74 1064.87 1162.84 1121.97 1102.73C1179.08 1042.62 1221.31 969.973 1245.3 890.608C1269.28 811.242 1274.35 727.363 1260.09 645.688C1245.83 564.012 1212.65 486.81 1163.19 420.265C1113.74 353.719 1049.39 299.679 975.294 262.471C913.346 231.363 846.027 212.744 777.164 207.521C754.757 205.821 736.531 224.217 736.551 246.688V246.688C736.572 269.159 754.842 287.168 777.223 289.178C833.366 294.221 888.186 309.788 938.775 335.193C1001.51 366.698 1056 412.457 1097.88 468.804C1139.75 525.152 1167.85 590.523 1179.93 659.681C1192 728.84 1187.71 799.864 1167.4 867.067C1147.09 934.27 1111.33 995.783 1062.98 1046.68C1014.62 1097.58 955.021 1136.45 888.947 1160.17C822.873 1183.9 752.161 1191.82 682.475 1183.31C626.283 1176.44 572.016 1159.04 522.477 1132.15C502.729 1121.43 477.543 1126.3 465.08 1145V1145Z" stroke="#E80088" stroke-width="160" mask="url(#path-2-inside-1_327_271)"/>
</svg>
