<svg width="1424" height="1424" viewBox="0 0 1424 1424" fill="none" xmlns="http://www.w3.org/2000/svg">
<path d="M1009.17 1245.7L415.837 1246.27C285.304 1246.39 178.415 1139.71 178.266 1009.17L177.703 415.839C177.584 285.306 284.265 178.417 414.799 178.268L1008.13 177.705C1138.67 177.586 1245.55 284.267 1245.7 414.801L1246.27 1008.13C1246.41 1138.7 1139.7 1245.59 1009.17 1245.7Z" fill="url(#paint0_radial_9_16)"/>
<path d="M1009.17 1245.7L415.837 1246.27C285.304 1246.39 178.415 1139.71 178.266 1009.17L177.703 415.839C177.584 285.306 284.265 178.417 414.799 178.268L1008.13 177.705C1138.67 177.586 1245.55 284.267 1245.7 414.801L1246.27 1008.13C1246.41 1138.7 1139.7 1245.59 1009.17 1245.7Z" fill="url(#paint1_radial_9_16)"/>
<path d="M711.999 919.668C597.516 919.668 504.333 826.514 504.333 712.001C504.333 597.488 597.516 504.334 711.999 504.334C826.483 504.334 919.666 597.488 919.666 712.001C919.666 826.514 826.483 919.668 711.999 919.668ZM711.999 563.668C630.208 563.668 563.666 630.21 563.666 712.001C563.666 793.792 630.208 860.334 711.999 860.334C793.79 860.334 860.333 793.792 860.333 712.001C860.333 630.21 793.79 563.668 711.999 563.668Z" fill="white"/>
<path d="M934.5 534C959.077 534 979 514.077 979 489.5C979 464.923 959.077 445 934.5 445C909.923 445 890 464.923 890 489.5C890 514.077 909.923 534 934.5 534Z" fill="white"/>
<path d="M889.999 1097.67H533.999C419.516 1097.67 326.333 1004.51 326.333 890.001V534.001C326.333 419.488 419.516 326.334 533.999 326.334H889.999C1004.48 326.334 1097.67 419.488 1097.67 534.001V890.001C1097.67 1004.51 1004.48 1097.67 889.999 1097.67ZM533.999 385.668C452.208 385.668 385.666 452.21 385.666 534.001V890.001C385.666 971.792 452.208 1038.33 533.999 1038.33H889.999C971.79 1038.33 1038.33 971.792 1038.33 890.001V534.001C1038.33 452.21 971.79 385.668 889.999 385.668H533.999Z" fill="white"/>
<defs>
<radialGradient id="paint0_radial_9_16" cx="0" cy="0" r="1" gradientUnits="userSpaceOnUse" gradientTransform="translate(574.939 1247.04) scale(1332 1332)">
<stop stop-color="#FFDD55"/>
<stop offset="0.328" stop-color="#FF543F"/>
<stop offset="0.348" stop-color="#FC5245"/>
<stop offset="0.504" stop-color="#E64771"/>
<stop offset="0.643" stop-color="#D53E91"/>
<stop offset="0.761" stop-color="#CC39A4"/>
<stop offset="0.841" stop-color="#C837AB"/>
</radialGradient>
<radialGradient id="paint1_radial_9_16" cx="0" cy="0" r="1" gradientUnits="userSpaceOnUse" gradientTransform="translate(349.651 164.364) scale(884.452 589.311)">
<stop stop-color="#4168C9"/>
<stop offset="0.999" stop-color="#4168C9" stop-opacity="0"/>
</radialGradient>
</defs>
</svg>
