<svg id="Layer_1" data-name="Layer 1" xmlns="http://www.w3.org/2000/svg" viewBox="0 0 1000 1000"><defs><style>.cls-1{fill:#e80088;}.cls-2{fill:#f29b1c;}</style></defs><path class="cls-1" d="M271.55,641.59a45.44,45.44,0,0,0-15.18-25.3q-16.81-14.07-46.63-14.09a106.81,106.81,0,0,0-44.88,9.35,96.19,96.19,0,0,0-35.26,27.71q-14.8,18.35-21.67,44.62a110.14,110.14,0,0,0-4,27.46q0,24.64,14.56,38.71t40.37,16l1.5,4.44,3.24,9.54q11.84,35.76,41.19,35.75,13.71,0,22.85-6.87c6.06-4.58,10.3-11,12.66-19.18a47.57,47.57,0,0,0,1.89-13.48,43.44,43.44,0,0,0-.34-5.76,27.79,27.79,0,0,0-1.43-6.21c-1.19-3.22-2.48-4.86-3.91-4.86a6.8,6.8,0,0,0-3.79,1.55,25.42,25.42,0,0,0-2.6,2,52.2,52.2,0,0,1-9.11,5.8,21.44,21.44,0,0,1-5,1.7,26.15,26.15,0,0,1-5.49.54,32.18,32.18,0,0,1-6-.54,33,33,0,0,1-14.57-6.56,98.57,98.57,0,0,0,49.71-26.39q21.07-20.49,29.82-53.64a119.61,119.61,0,0,0,3.26-17.24,90.79,90.79,0,0,0,.53-9.75A67.75,67.75,0,0,0,271.55,641.59Zm-64.66,44q-6.63,22.5-12.08,35.26t-11.13,18.6q-5.69,5.79-12.77,5.79c-3.79,0-6.56-1.09-8.29-3.31S160,736.14,160,731.23q0-12.53,9.47-45.68,6.41-23,12-35.87t11.25-18.6q5.69-5.69,12.78-5.68c3.63,0,6.32,1.12,8.05,3.32s2.6,5.84,2.6,10.89Q216.12,652.89,206.89,685.55Z"/><path class="cls-1" d="M427.89,643.39q-6.51-5.19-20.23-5.2a95.62,95.62,0,0,0-28.19,4.14q-13.49,4.15-14.67,9.59a4.32,4.32,0,0,0,.24,3.79,15.64,15.64,0,0,0,3.31,3.32,18.94,18.94,0,0,1,3.32,3.18,6.81,6.81,0,0,1,1.17,4.15,11.13,11.13,0,0,1-.71,3.55l-14.44,47.6c-1.88,4.1-3.79,7-5.67,8.76a10.45,10.45,0,0,1-7.35,2.6,7.26,7.26,0,0,1-5-1.65,6.27,6.27,0,0,1-1.9-5,14.54,14.54,0,0,1,.95-5L353.67,668a32.58,32.58,0,0,0,1.66-10.42q0-9-6.39-14.21t-20.13-5.2a95.49,95.49,0,0,0-28.17,4.14A41.64,41.64,0,0,0,289.88,647c-2.33,1.55-3.69,3.19-4.15,4.93a4.36,4.36,0,0,0,.22,3.79,16.51,16.51,0,0,0,3.32,3.32c.38.26.73.52,1.07.79a13.92,13.92,0,0,1,2.48,2.39,6.68,6.68,0,0,1,1.19,4.15,11.71,11.71,0,0,1-.71,3.55L278.15,719.4a43.38,43.38,0,0,0-2.38,13.73q0,14.68,11.25,22.85t27.82,8.16a48.66,48.66,0,0,0,21-4.84A59.88,59.88,0,0,0,354.62,745a25.25,25.25,0,0,0,10.64,14.91q8.3,5.68,22.27,5.69a46.5,46.5,0,0,0,20.13-4.27,37.3,37.3,0,0,0,14-10.77,21.08,21.08,0,0,0,4.72-11.5,14.71,14.71,0,0,0,0-1.63,7.6,7.6,0,0,0-.83-3.67,2.79,2.79,0,0,0-1.36-1.41,1.65,1.65,0,0,0-.65-.14c-.49,0-1.4.82-2.72,2.49a6.07,6.07,0,0,1-4.86,2.48,2.86,2.86,0,0,1-2.26-.94,3.84,3.84,0,0,1-.82-2.6,12,12,0,0,1,.48-2.84l9.16-30,10-32.75c.29-.95.55-1.86.77-2.76a33,33,0,0,0,1.12-7.88A17,17,0,0,0,427.89,643.39Z"/><path class="cls-1" d="M569.68,658.72a32.32,32.32,0,0,0-10.75-12.12Q545.45,637,515.37,637q-28.65,0-48.65,14.79a61.41,61.41,0,0,0-17.37,20,83.21,83.21,0,0,0-8.56,24c-.62,3.09-1.09,6-1.38,8.67a66.84,66.84,0,0,0-.52,7.9A63.82,63.82,0,0,0,440,724.34a46.58,46.58,0,0,0,3.53,11.13,41.35,41.35,0,0,0,12.19,15.41q16.82,13.27,43.1,13.26,17.74,0,30.31-6.39t18.94-15.5q6.38-9.12,6.15-17.41c0-2.05-.86-3.08-2.6-3.08s-4.58.79-9,2.38c-5.36,1.74-9.78,3-13.26,3.91a45,45,0,0,1-10.88,1.29q-12.33,0-19.18-5t-6.63-17.29a143.62,143.62,0,0,0,20.83,1.41q22,0,38.25-6.73c1.2-.5,2.34-1,3.44-1.62q13.17-6.87,16.32-20.77a34.54,34.54,0,0,0,.95-8.28A27.82,27.82,0,0,0,569.68,658.72Zm-57.62,25.16q-5.22,9.24-15.15,9.24a11,11,0,0,1-2.6-.24,109,109,0,0,1,5.78-19.64q3.44-8.29,7-12.44c2.36-2.75,4.43-4.15,6.15-4.15,2.38,0,3.63,2.22,3.81,6.63A39.84,39.84,0,0,1,512.06,683.88Z"/><path class="cls-1" d="M704,663.3a24.26,24.26,0,0,0-1.69-4.51,32.35,32.35,0,0,0-10.76-12.19Q678,637,648,637q-28.65,0-48.67,14.79a60.43,60.43,0,0,0-10.55,10q-11.19,13.43-15.36,34A89.66,89.66,0,0,0,571.54,710c0,.79-.06,1.57-.06,2.31q0,25.34,16.81,38.59t43.08,13.26q17.77,0,30.31-6.39a57.81,57.81,0,0,0,13.72-9.44,39.28,39.28,0,0,0,5.22-6.06c.69-1,1.33-2,1.91-2.94q4.46-7.51,4.26-14.47c0-2.05-.88-3.08-2.62-3.08-1.57,0-4.58.79-9,2.38-5.37,1.74-9.8,3-13.26,3.91a45.26,45.26,0,0,1-10.9,1.29q-12.28,0-19.16-5t-6.63-17.29a143.62,143.62,0,0,0,20.83,1.41q22,0,38.23-6.73t19.77-22.39a33.57,33.57,0,0,0,.94-8.28A28.76,28.76,0,0,0,704,663.3Zm-59.34,20.58q-5.21,9.24-15.15,9.24a11.13,11.13,0,0,1-2.6-.24,110.58,110.58,0,0,1,5.8-19.64q3.44-8.29,7-12.44c2.36-2.75,4.41-4.15,6.15-4.15,2.38,0,3.64,2.22,3.79,6.63A39.45,39.45,0,0,1,644.63,683.88Z"/><path class="cls-1" d="M861.27,684.12a45.58,45.58,0,0,0,2.36-14.43q0-14-8.87-22.73t-23.33-8.77a53.36,53.36,0,0,0-23.68,5.32q-10.87,5.32-20.59,19.31.72-11.6-6.15-18.12t-18.7-6.51a95.62,95.62,0,0,0-28.19,4.14q-13.49,4.15-14.91,9.59a6.36,6.36,0,0,0-.29,1.86h0a3.37,3.37,0,0,0,.53,1.92l.36.48a18.48,18.48,0,0,0,3,2.84,25.65,25.65,0,0,1,3.44,3.55,6.6,6.6,0,0,1,1.07,4,9,9,0,0,1-.48,3.3l-21.06,68.43q-1.68,5.68-4,8.29a21.89,21.89,0,0,1-5.92,4.49,5.66,5.66,0,0,0-.59.34c-2.34,1.35-3.81,2.88-4.39,4.64a4.88,4.88,0,0,0-.12,1.13,4.76,4.76,0,0,0,2.13,4.19q2.75,2,8.89,2h54c5.05,0,8.75-.46,11.13-1.41a7.1,7.1,0,0,0,4.49-4.51,3.47,3.47,0,0,0-.24-2.84,11.37,11.37,0,0,0-2.36-2.6,19.07,19.07,0,0,1-3.32-3.67,8.1,8.1,0,0,1-1.17-4.62,14.56,14.56,0,0,1,.94-5l14.67-48.3a28.65,28.65,0,0,1,6.87-12c3.16-3.24,6.46-4.86,9.94-4.86a7.18,7.18,0,0,1,4.86,1.77,6.17,6.17,0,0,1,2,4.86,14.48,14.48,0,0,1-1.19,5l-13,34.09Q785,730.31,785,739.05a24,24,0,0,0,9.48,19.3q9.24,7.21,24.86,7.22,12.78,0,21.9-4.15t13.85-10.64a21,21,0,0,0,4.49-13.38,8.53,8.53,0,0,0-.7-3.67c-.47-1-1.11-1.55-1.9-1.55-.46,0-1.38.82-2.72,2.49a6,6,0,0,1-4.85,2.48,2.81,2.81,0,0,1-2.24-.94,3.75,3.75,0,0,1-.83-2.6,6.69,6.69,0,0,1,.47-2.84Z"/><path class="cls-2" d="M880.13,782.42c-36.32,91.06-122.59,155.12-223.22,155.12H310.61c-100.63,0-186.9-64.06-223.2-155.12-2.27-5.7,1.72-11.95,7.64-11.95H116.6A79.42,79.42,0,0,0,146,781.75l1.24,3.67c13,39.31,38.49,47.56,57.55,47.56,12.93,0,24.11-3.48,33.22-10.35s15.43-16.32,18.8-28a65,65,0,0,0,2.6-18.37c0-2-.09-3.93-.24-5.76H872.48C878.39,770.47,882.38,776.74,880.13,782.42Z"/><path class="cls-1" d="M913.1,307.16c-1.93,2-7.78,7.94-10.12,8.75a5.43,5.43,0,0,1-6.27-2.12L838.9,338.18a446.7,446.7,0,0,0-49.45-61.68C713.94,197.92,615.38,152,509.6,145.56l-7.58-60a5.39,5.39,0,0,1-5.16-4.36c-.49-2.45,1.7-10.47,2.47-13.16a.5.5,0,0,1,.85-.17c1.74,2.21,6.83,8.77,7.32,11.21a5.46,5.46,0,0,1-2.62,5.77c12.74,25.18,54.72,89.47,117.32-2a5.46,5.46,0,0,1-2.47-6.13c.66-2.39,6.24-8.57,8.13-10.64a.48.48,0,0,1,.81.24c.57,2.72,2.19,10.88,1.53,13.28a5.38,5.38,0,0,1-4.53,3.94c-5.09,50.52,36.61,135.07,149.19-19.72a9.67,9.67,0,0,1-1.41-11.53c2.21-3.82,14.57-12,18.74-14.69a.89.89,0,0,1,.89,0,.83.83,0,0,1,.43.78c-.24,5-1.12,19.75-3.32,23.59A9.65,9.65,0,0,1,779.5,66.5c-78.18,176.4,18,168.6,58.68,138.28a5.4,5.4,0,0,1,.88-6.62c1.77-1.73,9.68-4.3,12.35-5.14a.48.48,0,0,1,.6.6c-.88,2.67-3.57,10.54-5.34,12.28a5.43,5.43,0,0,1-6.49.86c-48.73,100.44,26.71,105.45,55.62,104a5.42,5.42,0,0,1,3.67-5.1c2.35-.79,10.6.33,13.36.74A.46.46,0,0,1,913.1,307.16Z"/><path class="cls-1" d="M219.27,488.87q8.55,3.48,13,9.48a22.48,22.48,0,0,1,4.49,13.8,26.66,26.66,0,0,1-1.19,8.13q-4.91,17.1-28.27,21.68a26.21,26.21,0,0,1,12.87,7.87A20.2,20.2,0,0,1,225,563.46a35.16,35.16,0,0,1-1.36,8.81q-3.72,13.2-15,19.55t-31.92,6.35H106.25a10.67,10.67,0,0,1-5.51-1.18,3.64,3.64,0,0,1-1.94-3.22,6.92,6.92,0,0,1,2.7-5.08c1-.68,1.64-1.07,1.87-1.18a22.66,22.66,0,0,0,4.4-3.48,14.3,14.3,0,0,0,2.88-5.84l20.66-73A14.38,14.38,0,0,0,132,501a7.29,7.29,0,0,0-.59-3.13,33.53,33.53,0,0,0-1.61-3,6.94,6.94,0,0,1-1.52-3.55,9.17,9.17,0,0,1,.34-1.87,4.82,4.82,0,0,1,3-3.13,19.83,19.83,0,0,1,7-.93h60.62A53.21,53.21,0,0,1,219.27,488.87Zm-38.86,69.85q0-9.15-10.5-9.14h-8.46l-9.65,33.35h8.63q7.27,0,11.69-3.64t7.11-13.12A26.76,26.76,0,0,0,180.41,558.72Zm12.36-49.28q0-8.79-10-8.8h-7.62l-9,31.66h7.45q7.11,0,11.26-3.47t6.69-12.44A23,23,0,0,0,192.77,509.44Z"/><path class="cls-1" d="M332.64,574.81a9,9,0,0,0-.34,2,2.7,2.7,0,0,0,.59,1.86,2,2,0,0,0,1.61.68A4.35,4.35,0,0,0,338,577.6c1-1.19,1.61-1.78,1.95-1.78.56,0,1,.37,1.44,1.1a5.55,5.55,0,0,1,.59,2.63,14.56,14.56,0,0,1-3.39,9.4,26.57,26.57,0,0,1-10,7.7,33.21,33.21,0,0,1-14.39,3.05q-10,0-15.92-4.07A18.08,18.08,0,0,1,290.64,585a42.47,42.47,0,0,1-13.46,10.24,34.85,34.85,0,0,1-15,3.47q-11.87,0-19.9-5.84t-8-16.34a30.92,30.92,0,0,1,1.69-9.82l10.84-35.39a8.39,8.39,0,0,0,.51-2.54,4.8,4.8,0,0,0-.85-3,11.73,11.73,0,0,0-2.54-2.28,11.34,11.34,0,0,1-2.37-2.37,3.13,3.13,0,0,1-.17-2.71q1-3.9,10.67-6.86a68.42,68.42,0,0,1,20.15-3q9.81,0,14.39,3.72a12.41,12.41,0,0,1,4.57,10.16,23.67,23.67,0,0,1-1.18,7.45L279.3,565.15a10.5,10.5,0,0,0-.68,3.56,4.46,4.46,0,0,0,1.36,3.56,5.18,5.18,0,0,0,3.55,1.18,7.46,7.46,0,0,0,5.25-1.86,19.89,19.89,0,0,0,4.07-6.27l10.32-34a8.39,8.39,0,0,0,.51-2.54,4.8,4.8,0,0,0-.84-3,13.47,13.47,0,0,0-2.38-2.28,11.6,11.6,0,0,1-2.37-2.37,3.16,3.16,0,0,1-.17-2.71q.85-3.9,10.5-6.86a68.47,68.47,0,0,1,20.15-3q9.82,0,14.48,3.72a12.17,12.17,0,0,1,4.66,10,26.25,26.25,0,0,1-1.36,7.62Z"/><path class="cls-1" d="M446.51,514.35a19.5,19.5,0,0,1,5.67,14.23,24.58,24.58,0,0,1-.67,5.93,18.64,18.64,0,0,1-6.44,10.66,17.76,17.76,0,0,1-11.34,3.73q-6.45,0-9.74-3a27.78,27.78,0,0,1-5.84-8.13,18.91,18.91,0,0,0-2.54-4.23,3.55,3.55,0,0,0-2.71-1.36,3.94,3.94,0,0,0-3,1.36,12.22,12.22,0,0,0-2.29,4.74l-13,42.33a7.17,7.17,0,0,0-.34,2.54,5.31,5.31,0,0,0,1.27,3.64,15.2,15.2,0,0,0,3.47,2.8,12.67,12.67,0,0,1,2.71,2.2,2.85,2.85,0,0,1,.51,2.2,4.11,4.11,0,0,1-2.45,3.22c-1.42.67-3.81,1-7.2,1H349.23q-4.39,0-6.35-1.44a3.47,3.47,0,0,1-1.44-3.81,6.74,6.74,0,0,1,3.56-3.55,15.55,15.55,0,0,0,4.23-3.22,15.19,15.19,0,0,0,2.88-5.93l15.07-48.93a6.76,6.76,0,0,0,.34-2.37,4.79,4.79,0,0,0-.76-2.88,19,19,0,0,0-2.46-2.54,11.34,11.34,0,0,1-2.37-2.37,3.13,3.13,0,0,1-.17-2.71q1-3.9,10.67-6.86a68.42,68.42,0,0,1,20.15-3,19.87,19.87,0,0,1,11.51,3.13,14.35,14.35,0,0,1,5.93,8.89q8.13-12,21.34-12Q440.84,508.6,446.51,514.35Z"/><path class="cls-1" d="M559.45,483.28a22.81,22.81,0,0,1,8.47,6.27,13.14,13.14,0,0,1,3.3,8.55q0,10-13.55,10a23.76,23.76,0,0,1-6-.59,33.92,33.92,0,0,1-5-1.95,8.88,8.88,0,0,0-.51,3.39,27.14,27.14,0,0,0,.93,6.43,46.28,46.28,0,0,0,2.29,6.94,21.82,21.82,0,0,1,3.55,12.53,44.08,44.08,0,0,1-.84,7.79,34.7,34.7,0,0,1-8.89,16.09,47.18,47.18,0,0,1-17.61,11.43A65,65,0,0,1,502,574.3a118.36,118.36,0,0,1-18.46-1.36,6.89,6.89,0,0,0-2.54,5.42,4.32,4.32,0,0,0,2,3.64q2,1.44,6.77,1.44h25.4q13,0,20.32,4.49a14.2,14.2,0,0,1,7.28,12.78,21,21,0,0,1-1,6.27q-2,6.6-9.23,12.28t-20.24,9.22q-13,3.56-31.66,3.56-16.61,0-28.11-2.88t-17.19-7.87q-5.67-5-5.67-11.09a18.68,18.68,0,0,1,.68-4.07,14.23,14.23,0,0,1,6.86-8q5.32-3.14,17.52-4.15a12.45,12.45,0,0,1-4.06-9.31,16.08,16.08,0,0,1,.51-3.9q2.7-8.81,15.91-13-12.69-6.93-12.7-20.32a31.88,31.88,0,0,1,1-7.78,33.78,33.78,0,0,1,9-16,49.34,49.34,0,0,1,17.78-11.43,64.69,64.69,0,0,1,23.71-4.23q20.14,0,31.66,5.25a34.86,34.86,0,0,1-4-8.38,27,27,0,0,1-1.43-8.21,15.8,15.8,0,0,1,4.15-11Q540.4,481,548.87,481A25.94,25.94,0,0,1,559.45,483.28Zm-81,117.26a67.08,67.08,0,0,1-8.64-.5,10.54,10.54,0,0,0-2,6.77,6.78,6.78,0,0,0,3.47,6.09q3.3,1.88,10.25,1.87,8.46,0,13.8-2.54t5.33-7.28a3.87,3.87,0,0,0-1.52-3.22,7.08,7.08,0,0,0-4.41-1.19Zm36.41-72.64c0-3.83-1.64-5.76-4.92-5.76-2.82,0-5.28,1.39-7.36,4.15s-4.21,7.71-6.35,14.82q-2.71,8.8-2.71,13.38,0,5.58,4.74,5.58,4.23,0,7.45-4.23t6.43-14.73Q514.83,532.47,514.84,527.9Z"/><path class="cls-1" d="M654.36,574.81a9,9,0,0,0-.34,2,2.7,2.7,0,0,0,.6,1.86,2,2,0,0,0,1.6.68,4.34,4.34,0,0,0,3.47-1.78c1-1.19,1.61-1.78,1.95-1.78.56,0,1,.37,1.44,1.1a5.55,5.55,0,0,1,.59,2.63,14.49,14.49,0,0,1-3.38,9.4,26.57,26.57,0,0,1-10,7.7,33.25,33.25,0,0,1-14.4,3.05q-10,0-15.91-4.07A18,18,0,0,1,612.37,585a42.58,42.58,0,0,1-13.46,10.24,34.93,34.93,0,0,1-15,3.47q-11.85,0-19.9-5.84t-8-16.34a30.92,30.92,0,0,1,1.69-9.82l10.84-35.39a8.39,8.39,0,0,0,.51-2.54,4.74,4.74,0,0,0-.85-3,11.5,11.5,0,0,0-2.54-2.28,11.34,11.34,0,0,1-2.37-2.37,3.13,3.13,0,0,1-.17-2.71q1-3.9,10.67-6.86a68.42,68.42,0,0,1,20.15-3q9.83,0,14.39,3.72a12.41,12.41,0,0,1,4.57,10.16,23.38,23.38,0,0,1-1.18,7.45L601,565.15a10.5,10.5,0,0,0-.68,3.56,4.46,4.46,0,0,0,1.36,3.56,5.2,5.2,0,0,0,3.56,1.18,7.45,7.45,0,0,0,5.24-1.86,19.89,19.89,0,0,0,4.07-6.27l10.33-34a8.39,8.39,0,0,0,.51-2.54,4.8,4.8,0,0,0-.85-3,13.73,13.73,0,0,0-2.37-2.28,11.34,11.34,0,0,1-2.37-2.37,3.1,3.1,0,0,1-.17-2.71q.84-3.9,10.5-6.86a68.42,68.42,0,0,1,20.15-3q9.81,0,14.47,3.72a12.14,12.14,0,0,1,4.66,10,26.54,26.54,0,0,1-1.35,7.62Z"/><path class="cls-1" d="M758.5,514.61q9.64,6.85,9.65,17.52a24.45,24.45,0,0,1-.68,5.93q-2.54,11.18-14.14,16T726,558.89a102.75,102.75,0,0,1-14.91-1q-.17,8.8,4.74,12.36t13.72,3.56a32,32,0,0,0,7.79-.93q3.72-.93,9.48-2.8a24.47,24.47,0,0,1,6.44-1.69c1.24,0,1.86.74,1.86,2.2.11,4-1.36,8.1-4.4,12.45s-7.57,8-13.55,11.09-13.21,4.57-21.67,4.57q-18.79,0-30.82-9.48t-12-27.6A61.57,61.57,0,0,1,674,549.75q4.23-20.84,18.54-31.42t34.8-10.58Q748.83,507.75,758.5,514.61Zm-44.37,33.27q7.11,0,10.84-6.6a28.27,28.27,0,0,0,3.56-14.73q-.18-4.74-2.71-4.74c-1.25,0-2.71,1-4.41,3a33.75,33.75,0,0,0-5,8.89,78.85,78.85,0,0,0-4.15,14.05A7.62,7.62,0,0,0,714.13,547.88Z"/><path class="cls-1" d="M863.06,514.35a19.5,19.5,0,0,1,5.67,14.23,24.56,24.56,0,0,1-.68,5.93,18.63,18.63,0,0,1-6.43,10.66,17.77,17.77,0,0,1-11.35,3.73q-6.43,0-9.73-3a27.8,27.8,0,0,1-5.85-8.13,18.54,18.54,0,0,0-2.54-4.23,3.54,3.54,0,0,0-2.7-1.36,4,4,0,0,0-3,1.36,12.23,12.23,0,0,0-2.28,4.74l-13,42.33a7.17,7.17,0,0,0-.34,2.54,5.26,5.26,0,0,0,1.27,3.64,15.2,15.2,0,0,0,3.47,2.8,12.94,12.94,0,0,1,2.71,2.2,2.85,2.85,0,0,1,.51,2.2,4.13,4.13,0,0,1-2.46,3.22q-2.12,1-7.19,1H765.78c-2.94,0-5-.48-6.35-1.44a3.47,3.47,0,0,1-1.44-3.81,6.75,6.75,0,0,1,3.55-3.55,12.82,12.82,0,0,0,7.12-9.15l15.07-48.93a6.79,6.79,0,0,0,.33-2.37,4.72,4.72,0,0,0-.76-2.88,19.42,19.42,0,0,0-2.45-2.54,11.34,11.34,0,0,1-2.37-2.37,3.1,3.1,0,0,1-.17-2.71q1-3.9,10.67-6.86a68.42,68.42,0,0,1,20.15-3,19.91,19.91,0,0,1,11.51,3.13,14.35,14.35,0,0,1,5.93,8.89q8.13-12,21.33-12Q857.38,508.6,863.06,514.35Z"/><path class="cls-2" d="M872.1,477.1H95.42c-5.57,0-9.56-5.61-7.93-11.14,52.32-176.07,210-304,396.28-304q14.13,0,28,1a395.83,395.83,0,0,1,42.48,5.23C640.55,183.58,717.71,226.7,777,288.43A423.69,423.69,0,0,1,805,320.58q9.33,11.85,17.83,24.4A437.43,437.43,0,0,1,880,466,8.55,8.55,0,0,1,872.1,477.1Z"/></svg>