<svg width="256" height="256" viewBox="0 0 256 256" fill="none" xmlns="http://www.w3.org/2000/svg">
<path d="M69.5169 164.247C68.978 161.716 67.6106 159.436 65.6308 157.77C62.7619 155.369 58.7828 154.166 53.6936 154.163C49.7357 154.12 45.8157 154.936 42.2043 156.556C38.6785 158.177 35.5856 160.607 33.1777 163.65C30.6519 166.782 28.8027 170.589 27.6302 175.073C26.9939 177.364 26.6498 179.726 26.6062 182.103C26.6062 186.308 27.8487 189.611 30.3336 192.012C32.8185 194.414 36.2634 195.779 40.6683 196.108L41.0523 197.245L41.8817 199.687C43.9024 205.79 47.4173 208.841 52.4264 208.839C54.7662 208.839 56.7161 208.253 58.276 207.081C59.8273 205.908 60.9128 204.265 61.5169 202.17C61.8428 201.049 62.0057 199.887 62.0008 198.72C62.0045 198.227 61.9754 197.734 61.9137 197.245C61.8531 196.703 61.7302 196.169 61.5476 195.655C61.243 194.831 60.9128 194.411 60.5467 194.411C60.1902 194.441 59.8514 194.579 59.5764 194.808C59.3438 194.964 59.1215 195.135 58.9108 195.32C58.1869 195.894 57.4053 196.392 56.5787 196.805C56.1716 197.002 55.7417 197.148 55.2987 197.24C54.8364 197.335 54.3653 197.382 53.8932 197.378C53.378 197.38 52.8638 197.334 52.3572 197.24C50.9951 196.994 49.7143 196.417 48.6273 195.561C53.4357 194.593 57.8579 192.246 61.3531 188.805C64.949 185.308 67.4937 180.73 68.987 175.073C69.3729 173.624 69.6518 172.149 69.8216 170.659C69.9115 169.83 69.9568 168.997 69.9572 168.163C69.9598 166.845 69.8121 165.531 69.5169 164.247ZM52.964 175.511C51.8324 179.351 50.8016 182.359 49.8715 184.537C48.9413 186.715 47.9916 188.302 47.0222 189.299C46.0511 190.287 44.9614 190.781 43.7531 190.781C42.7828 190.781 42.0737 190.502 41.6308 189.934C41.188 189.365 40.9601 188.451 40.9601 187.194C40.9601 185.056 41.7682 181.158 43.3844 175.5C44.4784 171.575 45.5024 168.514 46.4564 166.318C47.4105 164.121 48.3705 162.534 49.3364 161.556C50.3075 160.585 51.3981 160.1 52.6081 160.102C53.5374 160.102 54.226 160.389 54.6689 160.952C55.1118 161.515 55.3345 162.447 55.3345 163.74C55.3294 166.006 54.5392 169.926 52.964 175.5V175.511Z" fill="white"/>
<path d="M109.54 164.708C108.429 163.822 106.703 163.378 104.361 163.376C101.916 163.367 99.4835 163.725 97.1444 164.436C94.8421 165.144 93.5902 165.963 93.3888 166.891C93.3245 167.047 93.2966 167.215 93.3072 167.383C93.3179 167.552 93.3668 167.715 93.4503 167.862C93.6884 168.186 93.9741 168.472 94.2977 168.711C94.613 168.947 94.8984 169.221 95.1476 169.526C95.3598 169.838 95.465 170.211 95.4471 170.588C95.4365 170.899 95.3751 171.206 95.2653 171.497L91.5687 183.682C91.0874 184.732 90.5984 185.474 90.1172 185.925C89.5993 186.381 88.9252 186.62 88.2356 186.59C87.7711 186.615 87.3144 186.464 86.9556 186.168C86.7851 186.004 86.6531 185.804 86.569 185.583C86.4849 185.361 86.4508 185.124 86.4692 184.888C86.4744 184.45 86.5567 184.017 86.7124 183.608L90.5396 171.008C90.8252 170.148 90.9688 169.247 90.9645 168.34C90.9645 166.804 90.4193 165.592 89.3287 164.702C88.2381 163.813 86.5204 163.37 84.1754 163.371C81.7321 163.362 79.3013 163.719 76.9639 164.431C75.9936 164.699 75.0662 165.103 74.2093 165.632C73.6129 166.029 73.2647 166.448 73.1469 166.894C73.0826 167.049 73.0542 167.217 73.0639 167.385C73.0737 167.553 73.1213 167.717 73.2033 167.864C73.4446 168.186 73.7308 168.473 74.0532 168.714C74.1504 168.781 74.2401 168.847 74.3271 168.916C74.5632 169.093 74.7765 169.299 74.962 169.528C75.1783 169.839 75.2855 170.212 75.2666 170.59C75.2535 170.901 75.1922 171.208 75.0848 171.499L71.2064 184.166C70.8153 185.297 70.6095 186.484 70.5972 187.681C70.5972 190.186 71.5572 192.136 73.4772 193.531C75.3972 194.925 77.7711 195.621 80.5991 195.62C82.4612 195.614 84.2982 195.19 85.9751 194.381C87.8047 193.491 89.439 192.247 90.7828 190.72C91.181 192.288 92.1529 193.65 93.5066 194.537C94.9231 195.506 96.8235 195.992 99.2077 195.993C100.986 196.018 102.746 195.645 104.361 194.9C105.759 194.281 106.988 193.336 107.945 192.143C108.635 191.306 109.056 190.28 109.153 189.199C109.161 189.06 109.161 188.921 109.153 188.782C109.162 188.456 109.089 188.133 108.941 187.842C108.872 187.684 108.749 187.556 108.593 187.481C108.54 187.458 108.484 187.446 108.426 187.446C108.301 187.446 108.068 187.655 107.73 188.083C107.587 188.279 107.399 188.438 107.183 188.548C106.967 188.658 106.728 188.716 106.486 188.718C106.378 188.723 106.27 188.704 106.169 188.663C106.069 188.621 105.98 188.558 105.907 188.477C105.758 188.288 105.684 188.052 105.697 187.812C105.709 187.565 105.75 187.321 105.82 187.085L108.165 179.405L110.725 171.021C110.799 170.777 110.866 170.544 110.922 170.314C111.099 169.656 111.195 168.978 111.209 168.297C111.234 167.609 111.096 166.925 110.806 166.301C110.516 165.678 110.082 165.131 109.54 164.708Z" fill="white"/>
<path d="M145.838 168.633C145.199 167.381 144.252 166.314 143.086 165.53C140.785 163.891 137.068 163.072 131.935 163.072C127.045 163.072 122.894 164.334 119.48 166.858C117.643 168.221 116.126 169.969 115.034 171.978C113.992 173.902 113.253 175.974 112.842 178.122C112.683 178.914 112.563 179.659 112.489 180.342C112.405 181.013 112.36 181.688 112.356 182.364C112.354 183.393 112.449 184.42 112.64 185.431C112.82 186.415 113.124 187.372 113.544 188.281C114.252 189.827 115.322 191.18 116.664 192.226C119.535 194.49 123.213 195.622 127.698 195.62C130.725 195.62 133.312 195.075 135.457 193.984C137.602 192.894 139.219 191.571 140.306 190.016C141.395 188.46 141.919 186.974 141.88 185.559C141.88 185.035 141.66 184.771 141.215 184.771C140.769 184.771 140.042 184.973 138.911 185.38C137.538 185.826 136.407 186.148 135.516 186.381C134.605 186.604 133.669 186.715 132.731 186.711C130.626 186.711 128.99 186.285 127.821 185.431C126.652 184.578 126.086 183.103 126.123 181.005C127.89 181.255 129.672 181.375 131.456 181.366C135.211 181.366 138.475 180.792 141.248 179.643C141.555 179.515 141.847 179.387 142.129 179.228C144.376 178.056 145.769 176.284 146.306 173.911C146.473 173.217 146.554 172.505 146.55 171.792C146.558 170.698 146.315 169.617 145.838 168.633ZM131.087 175.074C130.196 176.651 128.904 177.439 127.209 177.439C126.985 177.445 126.762 177.424 126.543 177.378C126.878 175.659 127.373 173.976 128.023 172.35C128.61 170.935 129.207 169.873 129.815 169.165C130.419 168.461 130.949 168.103 131.389 168.103C131.999 168.103 132.319 168.671 132.365 169.8C132.423 171.641 131.981 173.463 131.087 175.074Z" fill="white"/>
<path d="M180.224 169.805C180.118 169.407 179.973 169.02 179.791 168.651C179.154 167.393 178.206 166.319 177.037 165.53C174.724 163.891 171.008 163.072 165.888 163.072C160.998 163.072 156.845 164.334 153.428 166.859C152.428 167.6 151.522 168.46 150.728 169.419C148.818 171.711 147.507 174.612 146.795 178.123C146.538 179.32 146.377 180.537 146.314 181.76C146.314 181.963 146.299 182.162 146.299 182.352C146.299 186.676 147.733 189.969 150.602 192.231C153.471 194.492 157.147 195.624 161.631 195.625C164.663 195.625 167.25 195.08 169.39 193.989C170.671 193.358 171.854 192.544 172.902 191.573C173.399 191.102 173.847 190.583 174.239 190.021C174.415 189.765 174.579 189.509 174.728 189.269C175.489 187.987 175.852 186.752 175.818 185.564C175.818 185.04 175.593 184.776 175.147 184.776C174.746 184.776 173.975 184.978 172.843 185.385C171.469 185.831 170.335 186.153 169.449 186.386C168.536 186.609 167.599 186.72 166.659 186.716C164.563 186.716 162.928 186.29 161.754 185.436C160.579 184.583 160.014 183.108 160.056 181.01C161.823 181.26 163.605 181.38 165.389 181.371C169.143 181.371 172.406 180.797 175.176 179.648C177.946 178.5 179.633 176.589 180.237 173.916C180.405 173.223 180.486 172.511 180.477 171.797C180.484 171.124 180.399 170.454 180.224 169.805ZM165.033 175.074C164.144 176.651 162.851 177.439 161.155 177.439C160.931 177.445 160.708 177.424 160.489 177.378C160.827 175.659 161.324 173.976 161.974 172.35C162.561 170.935 163.158 169.873 163.766 169.165C164.37 168.461 164.895 168.103 165.34 168.103C165.949 168.103 166.272 168.671 166.31 169.8C166.371 171.642 165.927 173.466 165.025 175.074H165.033Z" fill="white"/>
<path d="M220.485 175.135C220.884 173.944 221.088 172.696 221.089 171.44C221.089 169.051 220.332 167.112 218.819 165.622C217.305 164.132 215.314 163.383 212.846 163.376C210.748 163.359 208.673 163.825 206.784 164.738C204.929 165.646 203.172 167.294 201.513 169.682C201.636 167.702 201.111 166.156 199.939 165.043C198.766 163.93 197.17 163.375 195.151 163.376C192.706 163.367 190.274 163.725 187.935 164.436C185.632 165.145 184.36 165.963 184.118 166.891C184.07 167.045 184.044 167.206 184.043 167.368C184.038 167.541 184.085 167.713 184.179 167.859L184.271 167.982C184.499 168.252 184.757 168.496 185.039 168.709C185.361 168.983 185.656 169.287 185.92 169.618C186.119 169.921 186.215 170.28 186.194 170.642C186.206 170.929 186.164 171.215 186.071 171.487L180.68 189.005C180.393 189.974 180.052 190.681 179.656 191.127C179.22 191.594 178.707 191.982 178.14 192.276C178.088 192.302 178.038 192.331 177.989 192.363C177.39 192.709 177.014 193.101 176.865 193.551C176.844 193.646 176.833 193.743 176.835 193.84C176.825 194.051 176.87 194.261 176.966 194.449C177.061 194.637 177.204 194.797 177.38 194.913C177.849 195.254 178.608 195.425 179.656 195.425H193.48C194.772 195.425 195.72 195.307 196.329 195.064C196.597 194.974 196.841 194.823 197.04 194.623C197.24 194.422 197.39 194.178 197.478 193.91C197.52 193.791 197.536 193.665 197.526 193.539C197.515 193.414 197.478 193.292 197.417 193.183C197.251 192.931 197.047 192.706 196.813 192.517C196.49 192.242 196.204 191.926 195.963 191.577C195.747 191.222 195.642 190.81 195.663 190.395C195.668 189.957 195.749 189.524 195.904 189.115L199.659 176.75C199.986 175.598 200.59 174.543 201.418 173.678C202.227 172.848 203.072 172.434 203.963 172.434C204.419 172.425 204.863 172.587 205.207 172.887C205.379 173.044 205.514 173.237 205.602 173.452C205.691 173.667 205.731 173.899 205.719 174.131C205.695 174.572 205.591 175.006 205.414 175.411L202.086 184.138C201.335 186.019 200.96 187.705 200.96 189.197C200.952 190.152 201.168 191.096 201.589 191.954C202.01 192.812 202.626 193.559 203.387 194.137C204.964 195.368 207.085 195.984 209.751 195.986C211.932 195.986 213.801 195.632 215.357 194.923C216.914 194.215 218.096 193.307 218.903 192.2C219.67 191.225 220.076 190.014 220.052 188.774C220.063 188.452 220.002 188.131 219.873 187.835C219.753 187.579 219.589 187.438 219.387 187.438C219.269 187.438 219.034 187.648 218.691 188.075C218.548 188.272 218.362 188.431 218.146 188.542C217.93 188.652 217.691 188.71 217.449 188.71C217.341 188.716 217.234 188.697 217.135 188.655C217.036 188.613 216.947 188.55 216.875 188.47C216.724 188.282 216.648 188.045 216.663 187.804C216.65 187.556 216.691 187.308 216.783 187.077L220.485 175.135Z" fill="white"/>
<path d="M225.313 200.299C216.015 223.611 193.93 240.01 168.169 240.01H79.5162C53.755 240.01 31.6698 223.611 22.377 200.299C21.7959 198.84 22.8174 197.24 24.3329 197.24H29.8497C32.1406 198.695 34.6997 199.677 37.3761 200.128L37.6935 201.067C41.0215 211.131 47.547 213.243 52.4263 213.243C55.7364 213.243 58.5985 212.352 60.9306 210.593C63.2628 208.834 64.8807 206.415 65.7434 203.425C66.189 201.898 66.4132 200.314 66.409 198.722C66.409 198.21 66.386 197.716 66.3476 197.248H223.355C224.868 197.24 225.889 198.845 225.313 200.299Z" fill="white"/>
<path d="M233.754 78.6326C233.259 79.1446 231.762 80.6652 231.163 80.8726C230.873 80.9717 230.558 80.9722 230.268 80.8741C229.978 80.7759 229.728 80.5846 229.558 80.3299L214.758 86.5737C211.014 80.9466 206.777 75.6625 202.099 70.7836C182.769 50.6672 157.537 38.9116 130.458 37.263L128.517 21.903C128.203 21.8954 127.9 21.7805 127.66 21.5775C127.42 21.3746 127.256 21.0956 127.196 20.7868C127.071 20.1596 127.631 18.1065 127.828 17.4179C127.836 17.3966 127.848 17.3775 127.865 17.3626C127.882 17.3478 127.903 17.3376 127.925 17.3332C127.947 17.3288 127.97 17.3303 127.991 17.3375C128.012 17.3447 128.031 17.3574 128.046 17.3744C128.491 17.9401 129.794 19.6195 129.92 20.2441C129.976 20.5295 129.941 20.8252 129.821 21.09C129.701 21.3547 129.501 21.5754 129.249 21.7213C132.511 28.1673 143.258 44.6256 159.283 21.2093C159.021 21.0527 158.817 20.8146 158.703 20.5311C158.588 20.2477 158.57 19.9347 158.651 19.64C158.82 19.0281 160.248 17.4461 160.732 16.9161C160.748 16.9004 160.767 16.8892 160.789 16.8837C160.81 16.8783 160.833 16.8787 160.854 16.885C160.875 16.8913 160.895 16.9032 160.91 16.9195C160.925 16.9358 160.935 16.9559 160.939 16.9776C161.085 17.6739 161.5 19.7629 161.331 20.3773C161.26 20.6416 161.112 20.8787 160.905 21.0584C160.699 21.238 160.443 21.3521 160.171 21.3859C158.868 34.319 169.544 55.9638 198.364 16.3376C197.992 15.9511 197.756 15.4543 197.691 14.922C197.626 14.3897 197.735 13.8506 198.003 13.3859C198.569 12.408 201.733 10.3139 202.801 9.62525C202.835 9.60525 202.874 9.59473 202.914 9.59473C202.954 9.59473 202.994 9.60525 203.028 9.62525C203.064 9.64463 203.093 9.67371 203.113 9.70908C203.132 9.74444 203.141 9.78463 203.138 9.82493C203.077 11.1049 202.852 14.8809 202.289 15.864C202.02 16.3281 201.608 16.6922 201.114 16.9014C200.62 17.1106 200.072 17.1535 199.552 17.0237C179.538 62.182 204.16 60.1852 214.574 52.4233C214.416 52.1565 214.352 51.8443 214.393 51.537C214.434 51.2296 214.577 50.9449 214.799 50.7286C215.252 50.2857 217.277 49.6278 217.961 49.4128C217.982 49.4062 218.005 49.4056 218.027 49.411C218.048 49.4163 218.068 49.4275 218.084 49.4433C218.1 49.4591 218.111 49.4789 218.116 49.5006C218.122 49.5223 218.121 49.545 218.114 49.5664C217.889 50.2499 217.201 52.2646 216.747 52.71C216.532 52.9225 216.253 53.0589 215.954 53.0987C215.654 53.1384 215.349 53.0793 215.086 52.9302C202.611 78.6428 221.924 79.9254 229.325 79.5542C229.326 79.266 229.418 78.9853 229.586 78.7514C229.754 78.5174 229.991 78.3417 230.264 78.2486C230.866 78.0464 232.978 78.3331 233.684 78.438C233.705 78.4414 233.725 78.4503 233.741 78.4638C233.757 78.4774 233.769 78.495 233.777 78.5149C233.784 78.5348 233.785 78.5562 233.781 78.5769C233.777 78.5976 233.768 78.6168 233.754 78.6326Z" fill="white"/>
<path d="M56.133 125.15C57.5922 125.744 58.7016 126.553 59.461 127.577C60.2242 128.595 60.6284 129.838 60.6105 131.11C60.6171 131.815 60.5143 132.517 60.3058 133.191C59.4679 136.11 57.0555 137.96 53.0687 138.741C54.3407 139.076 55.4864 139.776 56.3634 140.756C57.1921 141.727 57.6325 142.97 57.5999 144.245C57.58 145.009 57.463 145.767 57.2518 146.501C56.6169 148.754 55.3369 150.422 53.4118 151.506C51.4866 152.589 48.7628 153.131 45.2402 153.131H27.1999C26.7112 153.159 26.224 153.054 25.7894 152.829C25.6394 152.75 25.5139 152.631 25.4264 152.486C25.3389 152.341 25.2927 152.174 25.2927 152.005C25.3079 151.751 25.3775 151.504 25.4968 151.279C25.616 151.055 25.7822 150.859 25.9839 150.704C26.2399 150.53 26.4038 150.43 26.4626 150.402C26.8736 150.153 27.2519 149.854 27.589 149.511C27.9465 149.076 28.1988 148.565 28.3263 148.016L33.6153 129.328C33.7269 128.981 33.7865 128.62 33.7919 128.256C33.8013 127.981 33.7497 127.707 33.6409 127.454C33.5166 127.192 33.379 126.935 33.2287 126.686C33.0157 126.426 32.8807 126.111 32.8396 125.778C32.852 125.615 32.8811 125.455 32.9266 125.299C32.9832 125.115 33.0821 124.946 33.2155 124.807C33.3488 124.668 33.5129 124.562 33.6946 124.498C34.2729 124.312 34.8799 124.231 35.4866 124.259H51.0054C52.756 124.224 54.497 124.527 56.133 125.15ZM46.1849 143.032C46.1849 141.47 45.2889 140.69 43.4969 140.692H41.3311L38.8607 149.23H41.07C42.3107 149.23 43.3083 148.919 44.0626 148.298C44.817 147.677 45.4237 146.557 45.8828 144.939C46.073 144.321 46.1747 143.679 46.1849 143.032ZM49.349 130.416C49.349 128.916 48.4957 128.165 46.789 128.163H44.8383L42.5343 136.268H44.4415C45.655 136.268 46.6158 135.972 47.3241 135.38C48.0324 134.788 48.6032 133.726 49.0367 132.195C49.2317 131.622 49.3371 131.022 49.349 130.416Z" fill="white"/>
<path d="M85.1558 147.151C85.1076 147.318 85.0784 147.49 85.0687 147.663C85.058 147.835 85.1118 148.005 85.2198 148.14C85.2708 148.198 85.3344 148.244 85.4058 148.274C85.4772 148.304 85.5545 148.318 85.6319 148.314C85.8059 148.314 85.9776 148.274 86.1332 148.196C86.2888 148.118 86.424 148.005 86.5279 147.866C86.7839 147.561 86.9401 147.41 87.0271 147.41C87.1705 147.41 87.2831 147.505 87.3958 147.692C87.5007 147.9 87.5526 148.131 87.5468 148.365C87.5505 149.244 87.2431 150.097 86.679 150.771C85.9963 151.624 85.1182 152.301 84.119 152.742C82.9648 153.275 81.706 153.542 80.4351 153.523C78.7285 153.523 77.37 153.176 76.3596 152.481C75.3906 151.85 74.6929 150.88 74.4038 149.76C73.4426 150.856 72.2707 151.748 70.958 152.382C69.7602 152.96 68.4482 153.264 67.118 153.27C65.0922 153.27 63.3941 152.771 62.0236 151.775C60.6532 150.778 59.9705 149.384 59.9756 147.592C59.983 146.736 60.1291 145.887 60.4083 145.078L63.1833 136.018C63.2602 135.809 63.3043 135.59 63.3139 135.368C63.3288 135.095 63.2522 134.824 63.0963 134.6C62.9091 134.375 62.6901 134.178 62.446 134.016C62.2148 133.845 62.0104 133.641 61.8393 133.409C61.7804 133.304 61.7459 133.188 61.7384 133.067C61.7309 132.947 61.7505 132.827 61.7958 132.716C61.9664 132.05 62.8769 131.465 64.5273 130.959C66.1988 130.447 67.9375 130.189 69.6857 130.191C71.3599 130.191 72.5879 130.509 73.3695 131.144C73.7538 131.456 74.0596 131.854 74.2628 132.306C74.4659 132.757 74.5606 133.25 74.5395 133.745C74.5414 134.393 74.4394 135.036 74.2374 135.652L71.5007 144.678C71.3903 144.97 71.3314 145.278 71.3267 145.59C71.3138 145.758 71.3383 145.927 71.3985 146.085C71.4587 146.242 71.5531 146.384 71.6748 146.501C71.9295 146.712 72.2536 146.819 72.5836 146.803C73.0763 146.824 73.5579 146.653 73.9276 146.327C74.3732 145.863 74.7268 145.318 74.9695 144.722L77.6115 136.018C77.6884 135.809 77.7324 135.59 77.742 135.368C77.7577 135.095 77.682 134.825 77.527 134.6C77.3485 134.381 77.1439 134.185 76.9177 134.016C76.6871 133.844 76.4828 133.64 76.311 133.409C76.2526 133.304 76.2184 133.187 76.2109 133.067C76.2034 132.947 76.2227 132.827 76.2675 132.716C76.4125 132.05 77.3085 131.465 78.9555 130.959C80.627 130.448 82.3657 130.189 84.1139 130.191C85.7898 130.191 87.0254 130.509 87.8207 131.144C88.2072 131.446 88.5167 131.836 88.724 132.281C88.9313 132.726 89.0305 133.213 89.0137 133.704C88.9947 134.368 88.8773 135.025 88.6655 135.654L85.1558 147.151Z" fill="white"/>
<path d="M114.307 131.673C114.782 132.151 115.156 132.72 115.405 133.346C115.654 133.972 115.775 134.642 115.758 135.316C115.763 135.827 115.705 136.337 115.587 136.834C115.366 137.906 114.784 138.869 113.938 139.563C113.109 140.207 112.084 140.544 111.035 140.518C109.934 140.518 109.103 140.262 108.541 139.75C107.921 139.152 107.415 138.447 107.046 137.669C106.878 137.281 106.659 136.917 106.396 136.586C106.313 136.48 106.208 136.394 106.088 136.334C105.968 136.274 105.837 136.241 105.702 136.238C105.557 136.237 105.413 136.268 105.28 136.328C105.148 136.388 105.03 136.476 104.934 136.586C104.653 136.943 104.453 137.357 104.348 137.799L101.02 148.636C100.952 148.846 100.923 149.066 100.933 149.286C100.921 149.626 101.037 149.959 101.258 150.218C101.518 150.499 101.817 150.741 102.147 150.935C102.403 151.089 102.636 151.279 102.84 151.498C102.899 151.578 102.941 151.669 102.964 151.766C102.986 151.863 102.989 151.963 102.971 152.061C102.946 152.241 102.876 152.411 102.766 152.556C102.656 152.7 102.51 152.814 102.344 152.885C101.98 153.057 101.368 153.141 100.5 153.141H89.4029C88.6537 153.141 88.1118 153.018 87.7773 152.773C87.6209 152.67 87.501 152.52 87.4348 152.345C87.3686 152.17 87.3595 151.978 87.4087 151.797C87.5839 151.388 87.9104 151.063 88.32 150.889C88.7256 150.678 89.0919 150.399 89.4029 150.064C89.7568 149.618 90.0085 149.1 90.1402 148.546L93.9981 136.02C94.063 135.825 94.0924 135.619 94.0851 135.413C94.1003 135.153 94.0321 134.895 93.8906 134.676C93.7013 134.44 93.4905 134.223 93.2608 134.026C93.0296 133.855 92.8252 133.65 92.6541 133.419C92.5952 133.314 92.5607 133.197 92.5532 133.077C92.5456 132.957 92.5653 132.837 92.6106 132.725C92.7812 132.06 93.6917 131.474 95.3421 130.969C97.0136 130.457 98.7523 130.198 100.5 130.201C101.542 130.16 102.57 130.44 103.447 131.002C104.227 131.537 104.771 132.353 104.965 133.278C106.353 131.23 108.174 130.206 110.428 130.206C112.046 130.203 113.339 130.692 114.307 131.673Z" fill="white"/>
<path d="M143.219 123.719C144.057 124.078 144.8 124.628 145.388 125.325C145.923 125.929 146.223 126.706 146.232 127.513C146.232 129.22 145.076 130.073 142.764 130.073C142.247 130.088 141.731 130.038 141.228 129.922C140.788 129.79 140.36 129.623 139.948 129.423C139.848 129.701 139.804 129.996 139.817 130.291C139.83 130.847 139.91 131.4 140.055 131.937C140.203 132.544 140.399 133.138 140.641 133.714C141.264 134.665 141.581 135.785 141.55 136.921C141.538 137.591 141.466 138.259 141.335 138.916C140.961 140.468 140.174 141.891 139.059 143.035C137.795 144.336 136.255 145.336 134.551 145.961C132.621 146.685 130.573 147.044 128.512 147.021C126.93 147.028 125.35 146.912 123.786 146.672C123.581 146.84 123.415 147.052 123.303 147.292C123.19 147.532 123.133 147.795 123.136 148.06C123.136 148.246 123.183 148.429 123.273 148.591C123.362 148.754 123.491 148.892 123.648 148.992C123.989 149.238 124.567 149.36 125.381 149.36H131.884C134.102 149.36 135.836 149.744 137.086 150.51C137.665 150.833 138.145 151.309 138.474 151.886C138.802 152.462 138.967 153.118 138.949 153.782C138.946 154.326 138.859 154.868 138.693 155.387C138.352 156.513 137.564 157.561 136.33 158.53C135.096 159.5 133.369 160.286 131.149 160.891C128.93 161.498 126.229 161.802 123.044 161.802C120.209 161.802 117.81 161.556 115.848 161.065C113.885 160.573 112.418 159.902 111.447 159.05C110.479 158.197 109.996 157.25 109.996 156.211C110.015 155.858 110.073 155.509 110.17 155.169C110.471 154.287 111.1 153.554 111.926 153.121C112.834 152.585 114.329 152.231 116.411 152.059C116.08 151.757 115.816 151.388 115.637 150.978C115.458 150.567 115.368 150.123 115.372 149.675C115.374 149.338 115.418 149.003 115.502 148.677C115.963 147.173 117.321 146.064 119.575 145.349C117.409 144.166 116.326 142.432 116.324 140.147C116.327 139.475 116.413 138.806 116.58 138.155C116.955 136.603 117.753 135.186 118.884 134.059C120.172 132.767 121.725 131.768 123.436 131.133C125.373 130.395 127.432 130.028 129.505 130.05C132.943 130.05 135.644 130.498 137.61 131.394C137.175 130.728 136.83 130.007 136.586 129.249C136.356 128.572 136.233 127.863 136.22 127.147C136.199 126.107 136.579 125.098 137.283 124.331C137.989 123.534 139.065 123.136 140.511 123.136C141.445 123.138 142.368 123.337 143.219 123.719ZM122.483 153.738C121.744 153.743 121.005 153.7 120.271 153.61C119.907 154.112 119.726 154.724 119.759 155.343C119.751 155.659 119.83 155.972 119.987 156.246C120.143 156.521 120.372 156.748 120.648 156.902C121.211 157.223 122.086 157.383 123.272 157.381C124.716 157.381 125.893 157.164 126.805 156.731C127.716 156.297 128.171 155.676 128.169 154.867C128.175 154.708 128.143 154.551 128.075 154.407C128.007 154.264 127.906 154.139 127.78 154.043C127.448 153.819 127.051 153.712 126.651 153.738H122.483ZM131.804 135.142C131.804 134.162 131.384 133.668 130.545 133.668C129.823 133.668 129.193 134.023 128.661 134.73C128.128 135.437 127.583 136.704 127.035 138.524C126.572 140.026 126.341 141.168 126.341 141.949C126.341 142.902 126.746 143.378 127.555 143.378C128.277 143.378 128.912 143.017 129.462 142.295C130.011 141.573 130.56 140.316 131.108 138.524C131.567 137.049 131.797 135.922 131.799 135.142H131.804Z" fill="white"/>
<path d="M167.516 147.151C167.468 147.318 167.439 147.49 167.429 147.663C167.419 147.836 167.474 148.006 167.583 148.14C167.633 148.198 167.697 148.243 167.768 148.273C167.838 148.304 167.915 148.317 167.992 148.314C168.166 148.312 168.336 148.27 168.49 148.191C168.645 148.112 168.778 147.998 168.881 147.858C169.137 147.553 169.293 147.402 169.38 147.402C169.523 147.402 169.636 147.497 169.748 147.684C169.853 147.893 169.905 148.124 169.899 148.357C169.905 149.237 169.599 150.089 169.034 150.764C168.352 151.617 167.473 152.293 166.474 152.735C165.319 153.267 164.059 153.534 162.788 153.516C161.081 153.516 159.723 153.168 158.715 152.474C157.749 151.845 157.054 150.876 156.767 149.76C155.805 150.855 154.633 151.747 153.321 152.382C152.123 152.96 150.811 153.263 149.481 153.27C147.458 153.27 145.76 152.771 144.386 151.775C143.013 150.778 142.33 149.384 142.338 147.592C142.346 146.736 142.492 145.887 142.771 145.078L145.546 136.018C145.623 135.809 145.667 135.59 145.677 135.368C145.693 135.095 145.616 134.824 145.459 134.6C145.273 134.374 145.053 134.177 144.809 134.016C144.578 133.845 144.373 133.641 144.202 133.409C144.143 133.304 144.109 133.188 144.101 133.067C144.094 132.947 144.113 132.827 144.159 132.716C144.329 132.05 145.24 131.465 146.89 130.959C148.562 130.447 150.3 130.189 152.049 130.191C153.726 130.191 154.954 130.509 155.732 131.144C156.117 131.456 156.422 131.854 156.626 132.306C156.829 132.757 156.923 133.25 156.902 133.745C156.905 134.393 156.803 135.037 156.6 135.652L153.856 144.678C153.745 144.97 153.687 145.278 153.682 145.59C153.669 145.758 153.693 145.927 153.754 146.085C153.814 146.242 153.908 146.384 154.03 146.501C154.286 146.712 154.611 146.819 154.941 146.803C155.433 146.824 155.914 146.653 156.283 146.327C156.728 145.863 157.082 145.318 157.325 144.722L159.969 136.018C160.046 135.809 160.09 135.59 160.1 135.368C160.115 135.095 160.038 134.824 159.882 134.6C159.704 134.382 159.5 134.186 159.275 134.016C159.044 133.845 158.84 133.641 158.669 133.409C158.609 133.305 158.574 133.188 158.567 133.067C158.559 132.947 158.579 132.827 158.625 132.716C158.769 132.05 159.665 131.465 161.313 130.959C162.985 130.447 164.723 130.189 166.472 130.191C168.146 130.191 169.381 130.509 170.176 131.144C170.563 131.446 170.873 131.835 171.08 132.28C171.287 132.725 171.386 133.213 171.369 133.704C171.35 134.367 171.233 135.025 171.023 135.654L167.516 147.151Z" fill="white"/>
<path d="M194.176 131.741C195.821 132.91 196.645 134.405 196.646 136.226C196.651 136.737 196.592 137.247 196.472 137.744C196.039 139.652 194.832 141.017 192.852 141.84C190.873 142.662 188.541 143.075 185.856 143.076C184.579 143.084 183.303 142.998 182.039 142.82C182.01 144.322 182.415 145.377 183.252 145.984C184.09 146.592 185.261 146.896 186.765 146.896C187.437 146.898 188.107 146.819 188.759 146.658C189.394 146.499 190.203 146.26 191.186 145.941C191.713 145.722 192.268 145.577 192.835 145.508C193.152 145.508 193.311 145.698 193.311 146.071C193.339 147.095 192.963 148.145 192.184 149.259C191.406 150.372 190.246 151.307 188.716 152.098C187.185 152.889 185.334 153.268 183.168 153.268C179.961 153.268 177.331 152.459 175.278 150.841C173.225 149.223 172.201 146.868 172.206 143.775C172.22 142.754 172.333 141.736 172.544 140.736C173.266 137.18 174.848 134.499 177.29 132.693C179.732 130.887 182.702 129.984 186.199 129.984C189.867 129.984 192.526 130.57 194.176 131.741ZM182.817 140.258C184.031 140.258 184.956 139.694 185.592 138.568C186.234 137.417 186.549 136.114 186.504 134.797C186.473 133.988 186.242 133.584 185.81 133.584C185.49 133.584 185.116 133.84 184.681 134.352C184.141 135.041 183.71 135.809 183.401 136.628C182.936 137.791 182.58 138.995 182.339 140.224C182.496 140.255 182.657 140.266 182.817 140.258Z" fill="white"/>
<path d="M220.943 131.674C221.419 132.152 221.792 132.721 222.042 133.347C222.291 133.973 222.411 134.643 222.395 135.317C222.399 135.828 222.34 136.338 222.221 136.835C222.001 137.907 221.42 138.87 220.575 139.564C219.745 140.208 218.719 140.545 217.669 140.519C216.572 140.519 215.741 140.263 215.178 139.751C214.557 139.153 214.05 138.448 213.681 137.67C213.513 137.281 213.294 136.917 213.03 136.587C212.948 136.481 212.843 136.395 212.724 136.335C212.604 136.275 212.473 136.242 212.339 136.239C212.194 136.239 212.05 136.27 211.918 136.33C211.785 136.39 211.667 136.477 211.571 136.587C211.291 136.944 211.092 137.358 210.987 137.8L207.659 148.637C207.592 148.846 207.562 149.067 207.572 149.287C207.559 149.627 207.675 149.96 207.898 150.219C208.157 150.5 208.456 150.742 208.786 150.936C209.041 151.091 209.275 151.28 209.48 151.499C209.539 151.579 209.581 151.67 209.603 151.767C209.626 151.864 209.628 151.964 209.61 152.062C209.585 152.242 209.514 152.412 209.403 152.557C209.293 152.701 209.147 152.815 208.98 152.886C208.619 153.057 208.005 153.142 207.14 153.142H196.04C195.287 153.142 194.76 153.019 194.414 152.774C194.258 152.671 194.138 152.521 194.072 152.346C194.005 152.171 193.996 151.979 194.045 151.798C194.22 151.39 194.546 151.064 194.954 150.889C195.421 150.67 195.829 150.343 196.145 149.936C196.462 149.529 196.678 149.053 196.777 148.547L200.635 136.021C200.699 135.825 200.727 135.62 200.719 135.414C200.736 135.154 200.667 134.895 200.525 134.677C200.336 134.442 200.126 134.224 199.898 134.027C199.666 133.856 199.462 133.651 199.291 133.42C199.231 133.315 199.197 133.198 199.189 133.078C199.182 132.958 199.201 132.838 199.247 132.726C199.418 132.061 200.328 131.475 201.979 130.97C203.65 130.458 205.389 130.199 207.137 130.202C208.178 130.162 209.207 130.441 210.084 131.003C210.864 131.538 211.408 132.353 211.602 133.279C212.989 131.231 214.81 130.207 217.062 130.207C218.68 130.204 219.974 130.693 220.943 131.674Z" fill="white"/>
<path d="M223.258 122.138H24.4275C23.0016 122.138 21.9801 120.702 22.3974 119.286C35.7913 74.212 76.1574 41.4619 123.845 41.4619C126.257 41.4619 128.646 41.5472 131.013 41.7179C134.66 41.9678 138.29 42.4147 141.888 43.0568C163.981 46.9966 183.734 58.0353 198.912 73.8382C201.438 76.4597 203.83 79.2066 206.08 82.0686C207.672 84.091 209.194 86.1732 210.644 88.315C217.083 97.8301 222.02 108.279 225.28 119.296C225.381 119.619 225.406 119.96 225.353 120.293C225.3 120.627 225.17 120.944 224.974 121.219C224.778 121.494 224.522 121.72 224.224 121.88C223.926 122.039 223.595 122.127 223.258 122.138Z" fill="white"/>
</svg>
