<svg xmlns="http://www.w3.org/2000/svg" viewBox="0 0 906.51 980.06"><defs><style>.cls-1{fill:#f4dcea;}.cls-2{fill:#fff;}.cls-3{fill:#e80088;}.cls-4{fill:#f29b1c;}</style></defs><g id="Layer_2" data-name="Layer 2"><g id="Layer_1-2" data-name="Layer 1"><path class="cls-1" d="M392.91,791A83.26,83.26,0,0,1,378,800a86.39,86.39,0,0,1-37.26,8.13c-14.38,0-27.14-2.89-38-8.58a88.16,88.16,0,0,1-34.65,7.15,90.21,90.21,0,0,1-35.23-6.74,88.16,88.16,0,0,0,2.55-21.18,82,82,0,0,0-.67-10.81A69.21,69.21,0,0,0,232.2,756q1.19-1.49,2.34-3a28.06,28.06,0,0,0,5.71,5.46q11.26,8.18,27.83,8.17a48.66,48.66,0,0,0,21-4.84,59.88,59.88,0,0,0,18.82-14.33A25.25,25.25,0,0,0,318.5,762.4q8.29,5.69,22.27,5.69a46.5,46.5,0,0,0,20.13-4.27c1.17-.56,2.29-1.14,3.36-1.76a80.8,80.8,0,0,0,19.89,22.73A99.48,99.48,0,0,0,392.91,791Z"/><path class="cls-1" d="M450.14,695.64a11,11,0,0,1-2.6-.24,110.17,110.17,0,0,1,5.79-19.65q3.44-8.28,7-12.43c2.36-2.75,4.43-4.15,6.15-4.15,2.37,0,3.63,2.22,3.8,6.63a39.74,39.74,0,0,1-5,20.6Q460.08,695.64,450.14,695.64Z"/><path class="cls-1" d="M492.54,753.84a89,89,0,0,1-6.81-24.11q4.32-1.22,10.1-3.07,6.63-2.38,9-2.38c1.74,0,2.6,1,2.6,3.08q.24,8.29-6.14,17.41A42.47,42.47,0,0,1,492.54,753.84Z"/><path class="cls-1" d="M516.74,784.79l.58.45a101.88,101.88,0,0,1-16.82,10.67c-14,7.13-30.28,10.75-48.46,10.75-22.59,0-42.43-5.28-59.13-15.7a72,72,0,0,0,13.71-13.58l.08-.12a63.92,63.92,0,0,0,10-18.72q14.76,8.13,35.34,8.12,17.74,0,30.3-6.39a61.54,61.54,0,0,0,10.2-6.43A81.69,81.69,0,0,0,516.74,784.79Z"/><path class="cls-1" d="M487.4,690.38c3.45-17,9.68-32,18.57-44.77a37,37,0,0,1,6.2,3.51,32.29,32.29,0,0,1,10.74,12.12,27.66,27.66,0,0,1,2.76,12.38,34.54,34.54,0,0,1-.95,8.28q-3.18,13.9-16.32,20.77c-1.1.58-2.24,1.12-3.45,1.62a85,85,0,0,1-20.08,5.44A130.19,130.19,0,0,1,487.4,690.38Z"/><path class="cls-1" d="M511.24,638.69q-2.78,3.33-5.27,6.92-13.43-6.09-37.37-6.09t-41.79,10.31a56.35,56.35,0,0,0-20-34.61c18-10.42,38.76-15.69,61.83-15.69,28.83,0,50.66,5.55,66.74,17,.28.2.56.4.83.61q-3.81,2.37-7.46,5.06A100.34,100.34,0,0,0,511.24,638.69Z"/><path class="cls-1" d="M522.91,661.24a32.29,32.29,0,0,0-10.74-12.12,37,37,0,0,0-6.2-3.51c-8.89,12.72-15.12,27.73-18.57,44.77a130.19,130.19,0,0,0-2.53,19.35A85,85,0,0,0,505,704.29c1.21-.5,2.35-1,3.45-1.62q13.17-6.87,16.32-20.77a34.54,34.54,0,0,0,.95-8.28A27.66,27.66,0,0,0,522.91,661.24Zm-18.08,63q-2.37,0-9,2.38-5.77,1.86-10.1,3.07a89,89,0,0,0,6.81,24.11,42.47,42.47,0,0,0,8.75-9.07q6.38-9.12,6.14-17.41C507.43,725.31,506.57,724.28,504.83,724.28Z"/><path class="cls-1" d="M507.43,727.36q.24,8.29-6.14,17.41a42.47,42.47,0,0,1-8.75,9.07,89,89,0,0,1-6.81-24.11q4.32-1.22,10.1-3.07,6.63-2.38,9-2.38C506.57,724.28,507.43,725.31,507.43,727.36Z"/><path class="cls-1" d="M524.72,681.9q-3.18,13.9-16.32,20.77c-1.1.58-2.24,1.12-3.45,1.62a85,85,0,0,1-20.08,5.44,130.19,130.19,0,0,1,2.53-19.35c3.45-17,9.68-32,18.57-44.77a37,37,0,0,1,6.2,3.51,32.29,32.29,0,0,1,10.74,12.12,27.66,27.66,0,0,1,2.76,12.38A34.54,34.54,0,0,1,524.72,681.9Z"/><path class="cls-1" d="M582.72,695.64a11.07,11.07,0,0,1-2.6-.24,111,111,0,0,1,5.8-19.65q3.44-8.28,7-12.43c2.36-2.75,4.41-4.15,6.15-4.15,2.38,0,3.63,2.22,3.79,6.63a39.45,39.45,0,0,1-5,20.6Q592.65,695.64,582.72,695.64Z"/><path class="cls-1" d="M622.35,796.16a46.63,46.63,0,0,0,4.2,2.75c-12.44,5.15-26.52,7.75-41.94,7.75-26.38,0-49-7.21-67.29-21.42a83,83,0,0,0,16.74-17.54,80.26,80.26,0,0,0,7.89-14q16.72,12.94,42.66,12.93a76,76,0,0,0,19.52-2.33A45,45,0,0,0,622.35,796.16Z"/><path class="cls-1" d="M599.3,711a110,110,0,0,0,28-3.31l-4.78,15.54a49.13,49.13,0,0,0-7.83,7.42,44.67,44.67,0,0,1-10.44,1.19q-12.3,0-19.17-5t-6.63-17.29A143.86,143.86,0,0,0,599.3,711Z"/><path class="cls-1" d="M633.93,643.65c0,.05,0,.09,0,.14q-12.67-4.27-32.7-4.27-22.76,0-40.07,9.35c-.67-1.74-1.43-3.47-2.25-5.16a71.59,71.59,0,0,0-22.7-26.59c18.79-11.69,40.6-17.59,65-17.59,25,0,44.79,4.19,60.1,12.78C646.85,619.63,637.67,630.12,633.93,643.65Z"/><path class="cls-1" d="M657.21,665.82a28.76,28.76,0,0,1,1,7.8,34.06,34.06,0,0,1-.94,8.28q-3.54,15.63-19.77,22.39a79.54,79.54,0,0,1-10.22,3.42L637,676.3a43.33,43.33,0,0,1-4.82-20,46.46,46.46,0,0,1,1.73-12.52,41.56,41.56,0,0,1,10.87,5.33,32.35,32.35,0,0,1,10.76,12.19A24.26,24.26,0,0,1,657.21,665.82Z"/><path class="cls-1" d="M657.21,665.82a24.26,24.26,0,0,0-1.69-4.51,32.35,32.35,0,0,0-10.76-12.19,41.56,41.56,0,0,0-10.87-5.33,46.46,46.46,0,0,0-1.73,12.52,43.33,43.33,0,0,0,4.82,20l-9.67,31.41a79.54,79.54,0,0,0,10.22-3.42q16.22-6.76,19.77-22.39a34.06,34.06,0,0,0,.94-8.28A28.76,28.76,0,0,0,657.21,665.82Z"/><path class="cls-1" d="M658.24,673.62a34.06,34.06,0,0,1-.94,8.28q-3.54,15.63-19.77,22.39a79.54,79.54,0,0,1-10.22,3.42L637,676.3a43.33,43.33,0,0,1-4.82-20,46.46,46.46,0,0,1,1.73-12.52,41.56,41.56,0,0,1,10.87,5.33,32.35,32.35,0,0,1,10.76,12.19,24.26,24.26,0,0,1,1.69,4.51A28.76,28.76,0,0,1,658.24,673.62Z"/><path class="cls-1" d="M848.45,719.47c-.44-.94-.9-1.85-1.38-2.75l5.55-17.93a85.72,85.72,0,0,0,4.25-26.58c0-20.07-7.18-37.76-20.79-51.22-13.46-13.27-31.24-20.28-51.41-20.28a93.48,93.48,0,0,0-37,7.45,68.87,68.87,0,0,0-32.11-7.45,136.4,136.4,0,0,0-40,5.91,90.6,90.6,0,0,0-14.28,5.69c-14.44,7.32-23.62,17.81-27.36,31.34,0,.05,0,.09,0,.14a41.56,41.56,0,0,1,10.87,5.33,32.35,32.35,0,0,1,10.76,12.19,24.26,24.26,0,0,1,1.69,4.51,28.76,28.76,0,0,1,1,7.8,34.06,34.06,0,0,1-.94,8.28q-3.54,15.63-19.77,22.39a79.54,79.54,0,0,1-10.22,3.42l-4.78,15.54a49.13,49.13,0,0,0-7.83,7.42,44.67,44.67,0,0,1-10.44,1.19q-12.3,0-19.17-5t-6.63-17.29A143.86,143.86,0,0,0,599.3,711a110,110,0,0,0,28-3.31L637,676.3a43.33,43.33,0,0,1-4.82-20,46.46,46.46,0,0,1,1.73-12.52q-12.67-4.27-32.7-4.27-22.76,0-40.07,9.35c-.67-1.74-1.43-3.47-2.25-5.16a71.59,71.59,0,0,0-22.7-26.59q-3.81,2.37-7.46,5.06a100.34,100.34,0,0,0-17.47,16.51q-2.78,3.33-5.27,6.92a37,37,0,0,1,6.2,3.51,32.29,32.29,0,0,1,10.74,12.12,27.66,27.66,0,0,1,2.76,12.38,34.54,34.54,0,0,1-.95,8.28q-3.18,13.9-16.32,20.77c-1.1.58-2.24,1.12-3.45,1.62a85,85,0,0,1-20.08,5.44,130.19,130.19,0,0,1,2.53-19.35c3.45-17,9.68-32,18.57-44.77q-13.43-6.09-37.37-6.09t-41.79,10.31a56.35,56.35,0,0,0-20-34.61l-.7-.58c-11.59-9.24-26.79-13.93-45.17-13.93a136.4,136.4,0,0,0-40,5.91c-1.44.45-2.84.91-4.21,1.4-9.77-4.86-21.37-7.31-34.66-7.31a136.73,136.73,0,0,0-31.84,3.71,84.66,84.66,0,0,0-14.93-16.28c-18.56-15.54-42.89-23.42-72.31-23.42a146.82,146.82,0,0,0-61.48,13,136,136,0,0,0-49.78,39c-13.43,16.63-23.27,36.7-29.24,59.61-3.58,13.71-5.33,26-5.33,37.59,0,34.36,14.54,55.65,26.73,67.45a93.36,93.36,0,0,0,38.05,22.17c6.09,14.9,14.43,27,24.88,36.07,14.11,12.25,31.82,18.73,51.2,18.73,17.74,0,34-5.16,47-15s22.21-23.54,26.94-39.9c.34-1.16.66-2.33.95-3.5a88.16,88.16,0,0,0,2.55-21.18,82,82,0,0,0-.67-10.81A69.21,69.21,0,0,0,232.2,756q1.19-1.49,2.34-3a28.06,28.06,0,0,0,5.71,5.46q11.26,8.18,27.83,8.17a48.66,48.66,0,0,0,21-4.84,59.88,59.88,0,0,0,18.82-14.33A25.25,25.25,0,0,0,318.5,762.4q8.29,5.69,22.27,5.69a46.5,46.5,0,0,0,20.13-4.27c1.17-.56,2.29-1.14,3.36-1.76a80.8,80.8,0,0,0,19.89,22.73,99.48,99.48,0,0,0,8.76,6.17,72,72,0,0,0,13.71-13.58l.08-.12a63.92,63.92,0,0,0,10-18.72q14.76,8.13,35.34,8.12,17.74,0,30.3-6.39a61.54,61.54,0,0,0,10.2-6.43,89,89,0,0,1-6.81-24.11q4.32-1.22,10.1-3.07,6.63-2.38,9-2.38c1.74,0,2.6,1,2.6,3.08q.24,8.29-6.14,17.41a42.47,42.47,0,0,1-8.75,9.07,81.69,81.69,0,0,0,24.2,30.95l.58.45a83,83,0,0,0,16.74-17.54,80.26,80.26,0,0,0,7.89-14q16.72,12.94,42.66,12.93a76,76,0,0,0,19.52-2.33,45,45,0,0,0,18.22,31.83,46.63,46.63,0,0,0,4.2,2.75c8,4.68,17.56,7,28.39,7h54c10.41,0,18.65-1.35,25.94-4.26l.09,0c.67-.27,1.33-.55,2-.85,10.48,4.84,22.42,7.28,35.67,7.28,14.26,0,27.21-2.61,38.42-7.72,12.44-5.64,22.43-13.57,29.63-23.49a61,61,0,0,0,12.18-37.76A48,48,0,0,0,848.45,719.47ZM585.92,675.75q3.44-8.28,7-12.43c2.36-2.75,4.41-4.15,6.15-4.15,2.38,0,3.63,2.22,3.79,6.63a39.45,39.45,0,0,1-5,20.6q-5.22,9.24-15.15,9.24a11.07,11.07,0,0,1-2.6-.24A111,111,0,0,1,585.92,675.75Zm-132.59,0q3.44-8.28,7-12.43c2.36-2.75,4.43-4.15,6.15-4.15,2.37,0,3.63,2.22,3.8,6.63a39.74,39.74,0,0,1-5,20.6q-5.22,9.24-15.16,9.24a11,11,0,0,1-2.6-.24A110.17,110.17,0,0,1,453.33,675.75Z"/><path class="cls-1" d="M263.85,980.06A273.5,273.5,0,0,1,105,929.29,289.46,289.46,0,0,1,3.49,799.76,48.84,48.84,0,0,1,8.42,754.2,48.12,48.12,0,0,1,48.29,733H81.72l10,6.48a40.26,40.26,0,0,0,14.77,5.45l23.13,4.25,8.85,26.19c6.67,20.13,14.75,20.13,19.58,20.13,6.1,0,8.38-1.72,9.13-2.28,1.43-1.08,3.21-2.85,4.46-7.18l.07-.24a24.93,24.93,0,0,0,1-7c0-.81,0-1.61-.1-2.36L168.83,733H825.72a48.13,48.13,0,0,1,39.84,21.17,48.87,48.87,0,0,1,5,45.54A289.56,289.56,0,0,1,769,929.29a273.55,273.55,0,0,1-158.85,50.77Z"/><path class="cls-2" d="M833.37,785c-36.32,91-122.59,155.11-223.22,155.11H263.85C163.22,940.06,77,876,40.65,785c-2.27-5.7,1.72-12,7.64-12H69.84a79.41,79.41,0,0,0,29.37,11.27l1.24,3.67c13,39.31,38.49,47.56,57.55,47.56,12.93,0,24.11-3.48,33.22-10.35s15.43-16.32,18.8-28a65,65,0,0,0,2.6-18.37c0-2-.09-3.93-.24-5.75H825.72C831.63,773,835.62,779.26,833.37,785Z"/><path class="cls-1" d="M758.86,362.88a408.63,408.63,0,0,0-45-56.16c-68-70.74-158-112.9-253.43-118.71l-33.1-2-9.92-78.54a45,45,0,0,1-6.55-16c-1.72-8.75-.8-17.72,3.3-31.94A40.5,40.5,0,0,1,484.33,45l.25.31.24.3c7.89,10,13.18,18.22,15.16,28.25a44.65,44.65,0,0,1,.84,7.23c5.26,7.44,9.81,11.06,11.76,11.76,2.4-.48,9.79-4.6,20.52-17.6a46.24,46.24,0,0,1,1.3-6.59C537.11,58.8,543,51,551.61,41.58l.32-.34A40.49,40.49,0,0,1,621.1,60.81c3,14.61,3.28,23.25.93,31.87a46.49,46.49,0,0,1-3.14,8.23,40.09,40.09,0,0,0,3.94,13.55c6.44-2.08,27-12,62.72-58a49.29,49.29,0,0,1,6.53-21.65c5.17-9,13.73-16.63,31.57-28.2l1.17-.76L726,5.15a40.87,40.87,0,0,1,60.68,37.72c-1.18,24.16-4.16,33.8-8.59,41.52l-.08.14a49.63,49.63,0,0,1-15.41,16.4c-21.89,53.8-20.21,76.58-18.78,83.26A38.24,38.24,0,0,0,757.24,181a45.85,45.85,0,0,1,7-8.85h0c7.25-7.11,16.2-10.91,28.3-14.73l.8-.25.81-.22a40.48,40.48,0,0,1,49,51.76c-4.64,14.1-8.94,22-15.31,28.29a45.5,45.5,0,0,1-4.75,4.06c-6.31,16.54-6.21,25.37-5.39,27.77,1.18.94,5.93,3.32,15.58,4.24a46.67,46.67,0,0,1,6.52-2.79,48.1,48.1,0,0,1,15.52-2.38,119.72,119.72,0,0,1,16.51,1.44,40.47,40.47,0,0,1,23.22,68.14c-10.17,10.6-17.42,15.87-25.84,18.78l-.26.09a45.41,45.41,0,0,1-14.57,2.4c-.68,0-1.35,0-2-.05l-75.23,31.73Z"/><path class="cls-2" d="M866.34,309.69c-1.92,2-7.78,7.93-10.12,8.74a5.44,5.44,0,0,1-6.27-2.11L792.14,340.7A446.7,446.7,0,0,0,742.69,279c-75.51-78.57-174.07-124.5-279.85-130.94l-7.58-60a5.39,5.39,0,0,1-5.16-4.36c-.49-2.44,1.7-10.47,2.48-13.15a.49.49,0,0,1,.84-.18c1.74,2.21,6.84,8.77,7.32,11.21a5.46,5.46,0,0,1-2.62,5.77c12.74,25.18,54.72,89.47,117.32-2A5.46,5.46,0,0,1,573,79.25c.66-2.39,6.24-8.57,8.13-10.64a.48.48,0,0,1,.81.24c.57,2.72,2.19,10.89,1.53,13.28a5.38,5.38,0,0,1-4.52,3.94c-5.1,50.52,36.6,135.07,149.19-19.71a9.69,9.69,0,0,1-1.42-11.54c2.21-3.82,14.57-12,18.74-14.69a.89.89,0,0,1,.89,0,.83.83,0,0,1,.43.78c-.24,5-1.12,19.75-3.32,23.59A9.66,9.66,0,0,1,732.74,69c-78.18,176.39,18,168.59,58.68,138.27a5.38,5.38,0,0,1,.88-6.61c1.77-1.74,9.68-4.31,12.35-5.15a.48.48,0,0,1,.6.6c-.88,2.67-3.57,10.54-5.34,12.28a5.43,5.43,0,0,1-6.49.86c-48.73,100.44,26.71,105.45,55.62,104a5.42,5.42,0,0,1,3.67-5.1c2.36-.79,10.6.33,13.36.74A.47.47,0,0,1,866.34,309.69Z"/><path class="cls-1" d="M59.49,640.69a49.77,49.77,0,0,1-26.31-7A43.49,43.49,0,0,1,12,596.29a47,47,0,0,1,15.68-34.64l15.64-55.27a43,43,0,0,1-1.86-12.53,46.86,46.86,0,0,1,1.55-11.62l.24-1,.3-1a44.84,44.84,0,0,1,26.1-28.45,57.84,57.84,0,0,1,22.14-3.9h60.62a93,93,0,0,1,35.1,6.41c12.54,5.09,22.64,12.69,30,22.61A62.63,62.63,0,0,1,230,514.67a66.88,66.88,0,0,1-2.89,19.7,67.69,67.69,0,0,1-9.94,20.31,64.7,64.7,0,0,1,1,11.3,73.56,73.56,0,0,1-2.71,19.1l-.15.57c-5.37,19-17.07,34.08-33.83,43.53-13.74,7.75-30.61,11.51-51.57,11.51Z"/><path class="cls-1" d="M172.51,491.39q8.55,3.48,13,9.48A22.49,22.49,0,0,1,190,514.68a26.64,26.64,0,0,1-1.19,8.12q-4.9,17.12-28.27,21.68a26.21,26.21,0,0,1,12.87,7.87A20.2,20.2,0,0,1,178.19,566a35.1,35.1,0,0,1-1.36,8.81q-3.72,13.2-15,19.56t-31.92,6.34H59.49A10.67,10.67,0,0,1,54,599.51,3.63,3.63,0,0,1,52,596.29a6.89,6.89,0,0,1,2.71-5.08c1-.68,1.63-1.07,1.86-1.18a23,23,0,0,0,4.4-3.47,14.42,14.42,0,0,0,2.88-5.85l20.66-73a14.38,14.38,0,0,0,.67-4.23,7.29,7.29,0,0,0-.59-3.13,31.1,31.1,0,0,0-1.61-3,6.94,6.94,0,0,1-1.52-3.55,9,9,0,0,1,.34-1.86,4.81,4.81,0,0,1,3-3.14,19.86,19.86,0,0,1,7-.93h60.62A53.21,53.21,0,0,1,172.51,491.39Zm-38.86,69.85q0-9.15-10.5-9.14h-8.46L105,585.45h8.63q7.27,0,11.69-3.64t7.11-13.12A26.76,26.76,0,0,0,133.65,561.24ZM146,512q0-8.81-10-8.81H128.4l-9,31.66h7.45q7.11,0,11.26-3.47t6.69-12.44A23,23,0,0,0,146,512Z"/><path class="cls-1" d="M267.42,642.22a71.51,71.51,0,0,1-27.63-5.16,73.81,73.81,0,0,1-24.35,4.14c-16.26,0-31.27-4.66-43.41-13.48-15.82-11.48-24.53-28.78-24.53-48.7a71,71,0,0,1,3.56-21.92l6.06-19.79a43.58,43.58,0,0,1-1-27.17c3.21-11.54,12.35-26.59,37.44-34.3a108.91,108.91,0,0,1,31.9-4.72,69.25,69.25,0,0,1,25.43,4.44,108.74,108.74,0,0,1,30.95-4.44c15.82,0,29.09,4.2,39.45,12.47A51.81,51.81,0,0,1,341,524.83a65.33,65.33,0,0,1-3.12,19.38l-6.16,20.15a46.06,46.06,0,0,1,3.51,16.91,54.32,54.32,0,0,1-11.58,34.47,66.26,66.26,0,0,1-24.66,19.58A73.08,73.08,0,0,1,267.42,642.22Z"/><path class="cls-1" d="M285.88,577.33a9,9,0,0,0-.34,2,2.75,2.75,0,0,0,.59,1.86,2,2,0,0,0,1.61.68,4.31,4.31,0,0,0,3.47-1.78c1-1.18,1.61-1.78,2-1.78.56,0,1,.37,1.44,1.1a5.55,5.55,0,0,1,.59,2.63,14.5,14.5,0,0,1-3.39,9.4,26.57,26.57,0,0,1-10,7.7,33.21,33.21,0,0,1-14.39,3.05q-10,0-15.92-4.06a18.1,18.1,0,0,1-7.62-10.67,42.47,42.47,0,0,1-13.46,10.24,34.71,34.71,0,0,1-15,3.47q-11.87,0-19.9-5.84t-8-16.34a31,31,0,0,1,1.69-9.82L200,533.81a8.34,8.34,0,0,0,.51-2.54,4.75,4.75,0,0,0-.85-3,11.49,11.49,0,0,0-2.54-2.29,11.34,11.34,0,0,1-2.37-2.37,3.13,3.13,0,0,1-.17-2.71q1-3.9,10.67-6.86a68.42,68.42,0,0,1,20.15-3q9.81,0,14.39,3.72A12.42,12.42,0,0,1,244.39,525a23.38,23.38,0,0,1-1.18,7.45l-10.67,35.23a10.4,10.4,0,0,0-.68,3.55,4.46,4.46,0,0,0,1.36,3.56,5.18,5.18,0,0,0,3.55,1.18,7.46,7.46,0,0,0,5.25-1.86,19.89,19.89,0,0,0,4.07-6.27l10.32-34a8.34,8.34,0,0,0,.51-2.54,4.75,4.75,0,0,0-.84-3,13.38,13.38,0,0,0-2.37-2.29,11.34,11.34,0,0,1-2.37-2.37,3.1,3.1,0,0,1-.17-2.71q.84-3.9,10.49-6.86a68.47,68.47,0,0,1,20.15-3q9.82,0,14.48,3.72a12.14,12.14,0,0,1,4.66,10,26.25,26.25,0,0,1-1.36,7.62Z"/><path class="cls-1" d="M302.47,640.69c-11.67,0-21.81-3.12-30.14-9.28a43.28,43.28,0,0,1-16.76-44.33l.46-2.19.71-2.12a45.13,45.13,0,0,1,12.65-19.16l8.11-26.34a43.56,43.56,0,0,1-1-27.14c3.21-11.53,12.34-26.58,37.43-34.28a108.59,108.59,0,0,1,31.9-4.73A63.58,63.58,0,0,1,365.07,474a65.51,65.51,0,0,1,19.53-2.91c17.14,0,32.23,6.11,43.63,17.67a59.09,59.09,0,0,1,17.19,42.31,64.54,64.54,0,0,1-1.83,15.49A58.64,58.64,0,0,1,423,579.15a57.14,57.14,0,0,1-27.8,11.72,43.68,43.68,0,0,1-.05,10.47l-.07.63-.1.62a44.32,44.32,0,0,1-24.68,33.15c-7.06,3.38-14.84,5-24.5,5Z"/><path class="cls-1" d="M399.75,516.88a19.48,19.48,0,0,1,5.67,14.22,24.52,24.52,0,0,1-.67,5.93,18.64,18.64,0,0,1-6.44,10.66A17.76,17.76,0,0,1,387,551.42q-6.45,0-9.74-3a27.78,27.78,0,0,1-5.84-8.13,19.4,19.4,0,0,0-2.54-4.23,3.53,3.53,0,0,0-2.71-1.35,3.93,3.93,0,0,0-3,1.35,12.29,12.29,0,0,0-2.29,4.74l-13,42.33a7.17,7.17,0,0,0-.34,2.54,5.31,5.31,0,0,0,1.27,3.64,15.42,15.42,0,0,0,3.47,2.8,12.67,12.67,0,0,1,2.71,2.2,2.85,2.85,0,0,1,.51,2.2,4.11,4.11,0,0,1-2.45,3.22c-1.42.68-3.81,1-7.2,1H302.47c-2.93,0-5.05-.47-6.35-1.43a3.48,3.48,0,0,1-1.44-3.81,6.75,6.75,0,0,1,3.56-3.56,12.85,12.85,0,0,0,7.11-9.14l15.07-48.94a6.5,6.5,0,0,0,.34-2.37,4.79,4.79,0,0,0-.76-2.88,19.59,19.59,0,0,0-2.46-2.54,11.34,11.34,0,0,1-2.37-2.37,3.13,3.13,0,0,1-.17-2.71q1-3.9,10.67-6.86a68.42,68.42,0,0,1,20.15-3,19.87,19.87,0,0,1,11.51,3.13,14.33,14.33,0,0,1,5.93,8.89q8.13-12,21.34-12Q394.08,511.12,399.75,516.88Z"/><path class="cls-1" d="M433.87,674.56c-14.47,0-26.84-1.33-37.81-4.07-14.1-3.53-25.19-9-33.92-16.66-12.41-10.93-19.24-25.53-19.24-41.11A55.48,55.48,0,0,1,344.77,599l.27-1.1.34-1.08a53.38,53.38,0,0,1,22.08-29c.48-1.23,1-2.52,1.68-3.86a64.84,64.84,0,0,1-1.52-14.05,72.16,72.16,0,0,1,2.13-17.15,73.43,73.43,0,0,1,19.08-34.42,88.79,88.79,0,0,1,32-20.91A103,103,0,0,1,453,470.61a56.69,56.69,0,0,1,6.93-9.41c10.34-11.4,25.34-17.68,42.23-17.68a65.86,65.86,0,0,1,26.76,5.7,62.62,62.62,0,0,1,23.07,17.3,52.91,52.91,0,0,1,12.52,34.1,49.34,49.34,0,0,1-18.31,38.63,86.62,86.62,0,0,1-1.49,13.19l-.16.85-.2.86a72.73,72.73,0,0,1-12.68,27.28,55.05,55.05,0,0,1,4.39,21.8,60.92,60.92,0,0,1-2.82,18.16c-3.79,12.24-11.41,22.93-22.65,31.79-9.16,7.22-20.44,12.58-34.48,16.42C463.8,672.94,450,674.56,433.87,674.56Z"/><path class="cls-1" d="M512.69,485.8a22.81,22.81,0,0,1,8.47,6.27,13.14,13.14,0,0,1,3.3,8.55q0,10-13.54,10a23.8,23.8,0,0,1-6-.59,32.83,32.83,0,0,1-5-1.95,8.88,8.88,0,0,0-.51,3.39,27.07,27.07,0,0,0,.93,6.43,46.28,46.28,0,0,0,2.29,6.94,21.84,21.84,0,0,1,3.55,12.53,44.08,44.08,0,0,1-.84,7.79,34.65,34.65,0,0,1-8.89,16.09,46.86,46.86,0,0,1-17.61,11.43,65,65,0,0,1-23.62,4.15,119.63,119.63,0,0,1-18.46-1.35,6.89,6.89,0,0,0-2.54,5.41,4.31,4.31,0,0,0,2,3.64c1.36,1,3.61,1.44,6.77,1.44h25.4q13,0,20.32,4.49A14.18,14.18,0,0,1,496,603.23a21,21,0,0,1-1,6.27q-2,6.6-9.23,12.28T465.53,631q-13,3.56-31.66,3.55-16.59,0-28.11-2.88t-17.19-7.87q-5.67-5-5.67-11.09a18.68,18.68,0,0,1,.68-4.07,14.27,14.27,0,0,1,6.86-8q5.32-3.14,17.52-4.15a12.43,12.43,0,0,1-4.06-9.31,16.08,16.08,0,0,1,.51-3.9q2.7-8.81,15.91-13-12.69-6.93-12.7-20.31a32,32,0,0,1,1-7.79,33.7,33.7,0,0,1,9-16,49.07,49.07,0,0,1,17.78-11.43,64.49,64.49,0,0,1,23.71-4.24q20.14,0,31.67,5.25a34,34,0,0,1-4-8.38,26.77,26.77,0,0,1-1.44-8.21,15.8,15.8,0,0,1,4.15-11q4.14-4.57,12.61-4.57A25.94,25.94,0,0,1,512.69,485.8Zm-81,117.27a67,67,0,0,1-8.64-.51,10.54,10.54,0,0,0-2,6.77,6.81,6.81,0,0,0,3.47,6.1q3.3,1.86,10.25,1.86,8.46,0,13.8-2.54t5.33-7.28a3.87,3.87,0,0,0-1.52-3.22,7.08,7.08,0,0,0-4.41-1.18Zm36.41-72.65q0-5.74-4.92-5.75c-2.82,0-5.28,1.38-7.36,4.14s-4.21,7.71-6.35,14.82q-2.71,8.8-2.71,13.38c0,3.72,1.58,5.59,4.74,5.59,2.82,0,5.31-1.41,7.45-4.24s4.29-7.73,6.44-14.73Q468.07,535,468.08,530.42Z"/><path class="cls-1" d="M589.14,642.22a71.55,71.55,0,0,1-27.63-5.16,73.76,73.76,0,0,1-24.35,4.14c-16.26,0-31.26-4.66-43.4-13.47-15.82-11.49-24.54-28.79-24.54-48.71a70.67,70.67,0,0,1,3.57-21.92l6-19.78a43.5,43.5,0,0,1-1-27.17c3.2-11.54,12.34-26.59,37.43-34.3a108.59,108.59,0,0,1,31.9-4.73,69.3,69.3,0,0,1,25.44,4.44,108.64,108.64,0,0,1,30.95-4.44c15.81,0,29.08,4.2,39.44,12.47a51.79,51.79,0,0,1,19.69,41.24,65.33,65.33,0,0,1-3.12,19.38l-6.16,20.15a46.07,46.07,0,0,1,3.52,16.91,54.31,54.31,0,0,1-11.59,34.47,66.06,66.06,0,0,1-24.66,19.58A73,73,0,0,1,589.14,642.22Z"/><path class="cls-1" d="M607.6,577.33a9,9,0,0,0-.34,2,2.7,2.7,0,0,0,.6,1.86,2,2,0,0,0,1.6.68,4.34,4.34,0,0,0,3.48-1.78c.95-1.18,1.6-1.78,1.94-1.78.57,0,1,.37,1.44,1.1a5.43,5.43,0,0,1,.59,2.63,14.49,14.49,0,0,1-3.38,9.4,26.57,26.57,0,0,1-10,7.7,33.25,33.25,0,0,1-14.4,3.05q-10,0-15.91-4.06a18,18,0,0,1-7.62-10.67,42.58,42.58,0,0,1-13.46,10.24,34.75,34.75,0,0,1-15,3.47q-11.85,0-19.9-5.84t-8-16.34a31,31,0,0,1,1.69-9.82l10.84-35.39a8.34,8.34,0,0,0,.51-2.54,4.69,4.69,0,0,0-.85-3,11.27,11.27,0,0,0-2.54-2.29,11.34,11.34,0,0,1-2.37-2.37,3.13,3.13,0,0,1-.17-2.71q1-3.9,10.67-6.86a68.42,68.42,0,0,1,20.15-3q9.83,0,14.39,3.72A12.43,12.43,0,0,1,566.12,525a23.39,23.39,0,0,1-1.19,7.45l-10.67,35.23a10.4,10.4,0,0,0-.68,3.55,4.5,4.5,0,0,0,1.36,3.56A5.2,5.2,0,0,0,558.5,576a7.45,7.45,0,0,0,5.24-1.86,19.89,19.89,0,0,0,4.07-6.27l10.33-34a8.34,8.34,0,0,0,.51-2.54,4.75,4.75,0,0,0-.85-3,13,13,0,0,0-2.37-2.29,11.34,11.34,0,0,1-2.37-2.37,3.13,3.13,0,0,1-.17-2.71q.84-3.9,10.5-6.86a68.42,68.42,0,0,1,20.15-3q9.81,0,14.47,3.72a12.14,12.14,0,0,1,4.66,10,26.54,26.54,0,0,1-1.35,7.62Z"/><path class="cls-1" d="M668.73,641.2c-21.69,0-40.4-6.08-55.6-18.08-17.56-13.85-27.24-34.8-27.24-59A99.53,99.53,0,0,1,588,544.41l0-.11c4.77-23.47,16.51-42.7,34-55.6,16.54-12.23,36.25-18.43,58.59-18.43,23.06,0,40.83,4.66,54.33,14.25,17.07,12.14,26.48,29.94,26.48,50.14a64.53,64.53,0,0,1-1.76,15.16,61.52,61.52,0,0,1-11.27,23.9c-.05,8.74-2.25,21.37-11.67,34.79-6.82,9.73-16.28,17.72-28.12,23.76C696.92,638.2,683.52,641.2,668.73,641.2Z"/><path class="cls-1" d="M711.74,517.13q9.64,6.86,9.65,17.53a24.42,24.42,0,0,1-.68,5.92q-2.54,11.17-14.14,16t-27.34,4.83a102.51,102.51,0,0,1-14.9-1c-.12,5.88,1.46,10,4.74,12.37s7.84,3.55,13.71,3.55a32,32,0,0,0,7.79-.93q3.72-.93,9.48-2.79a24.21,24.21,0,0,1,6.44-1.7c1.24,0,1.86.74,1.86,2.2q.17,5.94-4.4,12.45T690.4,596.63q-9,4.57-21.67,4.57-18.79,0-30.82-9.48t-12-27.6a61.57,61.57,0,0,1,1.35-11.85q4.23-20.84,18.54-31.42t34.8-10.58Q702.09,510.27,711.74,517.13ZM667.37,550.4q7.11,0,10.84-6.6a28.27,28.27,0,0,0,3.56-14.73q-.18-4.74-2.71-4.74c-1.25,0-2.71,1-4.41,3a33.75,33.75,0,0,0-5,8.89,79.1,79.1,0,0,0-4.15,14.05A7.62,7.62,0,0,0,667.37,550.4Z"/><path class="cls-1" d="M719,640.69c-11.68,0-21.82-3.12-30.15-9.28a43.28,43.28,0,0,1-16.75-44.35l.46-2.17.7-2.1a45.06,45.06,0,0,1,12.66-19.18l8.11-26.34a43.41,43.41,0,0,1-1-27.14c3.21-11.53,12.34-26.58,37.43-34.29a108.91,108.91,0,0,1,31.9-4.72A63.58,63.58,0,0,1,781.62,474a65.49,65.49,0,0,1,19.52-2.91c17.15,0,32.24,6.11,43.64,17.67A59.86,59.86,0,0,1,862,531.1a64.71,64.71,0,0,1-1.84,15.51,58.54,58.54,0,0,1-20.56,32.54,57.17,57.17,0,0,1-27.81,11.72,44.37,44.37,0,0,1,0,10.49l-.08.62-.1.62a44.31,44.31,0,0,1-24.67,33.14c-7.06,3.38-14.84,5-24.5,5Z"/><path class="cls-1" d="M816.3,516.88A19.48,19.48,0,0,1,822,531.1a24.51,24.51,0,0,1-.68,5.93,18.63,18.63,0,0,1-6.43,10.66,17.77,17.77,0,0,1-11.35,3.73q-6.43,0-9.73-3a27.78,27.78,0,0,1-5.84-8.13A19.8,19.8,0,0,0,785.4,536a3.56,3.56,0,0,0-2.71-1.35,4,4,0,0,0-3,1.35,12.3,12.3,0,0,0-2.28,4.74l-13,42.33a7.17,7.17,0,0,0-.34,2.54,5.26,5.26,0,0,0,1.27,3.64,15.2,15.2,0,0,0,3.47,2.8,12.67,12.67,0,0,1,2.71,2.2,2.85,2.85,0,0,1,.51,2.2,4.13,4.13,0,0,1-2.46,3.22c-1.41.68-3.81,1-7.19,1H719c-2.94,0-5-.47-6.35-1.43a3.48,3.48,0,0,1-1.44-3.81,6.75,6.75,0,0,1,3.56-3.56,12.85,12.85,0,0,0,7.11-9.14L737,533.81a6.72,6.72,0,0,0,.34-2.37,4.72,4.72,0,0,0-.77-2.88,18.74,18.74,0,0,0-2.45-2.54,11.34,11.34,0,0,1-2.37-2.37,3.13,3.13,0,0,1-.17-2.71q1-3.9,10.67-6.86a68.42,68.42,0,0,1,20.15-3,19.91,19.91,0,0,1,11.51,3.13,14.37,14.37,0,0,1,5.93,8.89q8.13-12,21.33-12Q810.62,511.12,816.3,516.88Z"/><path class="cls-1" d="M48.66,519.63a48.4,48.4,0,0,1-38.59-19.4,49.08,49.08,0,0,1-7.69-43.1A477.11,477.11,0,0,1,65.46,324.18,465.86,465.86,0,0,1,164,218.93a447.64,447.64,0,0,1,126.51-69.41,439.18,439.18,0,0,1,146.48-25c10.32,0,20.7.36,30.85,1.08a439,439,0,0,1,180.28,52.74,457,457,0,0,1,111,84.91c10.69,11.12,21,22.95,30.56,35.17C796.44,307,803,316,809.15,325.08a476.75,476.75,0,0,1,62.46,132A49,49,0,0,1,864,500.17a48.43,48.43,0,0,1-38.64,19.46Z"/><path class="cls-2" d="M825.34,479.63H48.66c-5.57,0-9.56-5.62-7.92-11.15,52.31-176.07,209.94-304,396.27-304q14.13,0,28,1a395.83,395.83,0,0,1,42.48,5.23C593.79,186.1,671,229.22,730.28,291c9.81,10.21,19.14,21,27.93,32.15Q767.52,335,776,347.5a437.74,437.74,0,0,1,57.24,121C834.92,474,830.91,479.63,825.34,479.63Z"/><path class="cls-3" d="M224.79,644.11a45.48,45.48,0,0,0-15.18-25.3Q192.8,604.74,163,604.73a106.65,106.65,0,0,0-44.88,9.35,96.06,96.06,0,0,0-35.26,27.7Q68,660.13,61.17,686.4a110.08,110.08,0,0,0-4,27.46q0,24.64,14.55,38.71t40.38,16l1.49,4.45,3.24,9.54q11.84,35.75,41.19,35.74,13.71,0,22.85-6.87c6.06-4.58,10.3-11,12.66-19.18a47.57,47.57,0,0,0,1.89-13.48,43.18,43.18,0,0,0-.34-5.75,27.75,27.75,0,0,0-1.43-6.22c-1.19-3.22-2.48-4.86-3.91-4.86a6.8,6.8,0,0,0-3.79,1.55,25.42,25.42,0,0,0-2.6,2,51.62,51.62,0,0,1-9.11,5.8,22,22,0,0,1-5,1.71,27,27,0,0,1-5.5.53,33.1,33.1,0,0,1-20.59-7.09A98.66,98.66,0,0,0,192.8,740q21.07-20.49,29.83-53.64a120.65,120.65,0,0,0,3.25-17.24,90.74,90.74,0,0,0,.53-9.74A67.78,67.78,0,0,0,224.79,644.11Zm-64.65,44q-6.64,22.5-12.09,35.26t-11.13,18.6q-5.67,5.79-12.77,5.79c-3.79,0-6.56-1.09-8.29-3.31s-2.61-5.75-2.61-10.66q0-12.53,9.47-45.68,6.41-23,12-35.87t11.24-18.6q5.69-5.69,12.78-5.68c3.63,0,6.32,1.12,8,3.32s2.61,5.84,2.61,10.89Q169.37,655.41,160.14,688.07Z"/><path class="cls-3" d="M381.13,645.92q-6.51-5.2-20.23-5.21a95.62,95.62,0,0,0-28.19,4.14Q319.23,649,318,654.44a4.32,4.32,0,0,0,.24,3.79,15.64,15.64,0,0,0,3.31,3.32,18.26,18.26,0,0,1,3.32,3.19,6.77,6.77,0,0,1,1.17,4.15,11.12,11.12,0,0,1-.71,3.54L310.93,720c-1.88,4.1-3.79,7-5.67,8.76a10.44,10.44,0,0,1-7.35,2.6,7.26,7.26,0,0,1-5-1.65,6.27,6.27,0,0,1-1.89-5,14.56,14.56,0,0,1,.94-5l14.92-49.25a32.85,32.85,0,0,0,1.65-10.42q0-9-6.39-14.2t-20.13-5.21a95.49,95.49,0,0,0-28.17,4.14,41.79,41.79,0,0,0-10.76,4.66c-2.33,1.55-3.69,3.19-4.15,4.93a4.36,4.36,0,0,0,.22,3.79,16.51,16.51,0,0,0,3.32,3.32c.38.26.73.52,1.07.79a13.6,13.6,0,0,1,2.48,2.4,6.64,6.64,0,0,1,1.19,4.15,11.71,11.71,0,0,1-.71,3.54l-15.15,49.49A43.38,43.38,0,0,0,229,735.65q0,14.69,11.25,22.85t27.82,8.16a48.66,48.66,0,0,0,21-4.84,59.73,59.73,0,0,0,18.82-14.33,25.3,25.3,0,0,0,10.64,14.92q8.29,5.67,22.27,5.68a46.5,46.5,0,0,0,20.13-4.27,37.28,37.28,0,0,0,14-10.76,21.14,21.14,0,0,0,4.72-11.51,14.71,14.71,0,0,0,0-1.63,7.62,7.62,0,0,0-.83-3.67,2.79,2.79,0,0,0-1.36-1.41,1.62,1.62,0,0,0-.65-.14c-.48,0-1.4.83-2.72,2.5a6.1,6.1,0,0,1-4.86,2.48,2.8,2.8,0,0,1-2.25-.95,3.79,3.79,0,0,1-.83-2.6,12,12,0,0,1,.48-2.84l9.16-30,10-32.75c.29-.95.55-1.86.77-2.76a33,33,0,0,0,1.12-7.88A17,17,0,0,0,381.13,645.92Z"/><path class="cls-3" d="M522.92,661.24a32.32,32.32,0,0,0-10.75-12.12q-13.48-9.58-43.56-9.59-28.65,0-48.65,14.79a61.46,61.46,0,0,0-17.37,20,83,83,0,0,0-8.56,24c-.62,3.08-1.09,6-1.38,8.66a66.84,66.84,0,0,0-.52,7.9,63.82,63.82,0,0,0,1.09,12.05A46.58,46.58,0,0,0,396.75,738a41.35,41.35,0,0,0,12.19,15.41q16.81,13.27,43.1,13.26,17.74,0,30.31-6.39t18.94-15.5q6.38-9.12,6.15-17.41c0-2.05-.86-3.08-2.6-3.08-1.59,0-4.58.79-9,2.38-5.35,1.74-9.78,3-13.26,3.91a45,45,0,0,1-10.88,1.29q-12.31,0-19.18-5t-6.63-17.29A143.62,143.62,0,0,0,466.71,711q22,0,38.25-6.73c1.2-.5,2.34-1,3.44-1.62q13.17-6.87,16.33-20.77a34.56,34.56,0,0,0,.94-8.28A27.82,27.82,0,0,0,522.92,661.24ZM465.3,686.4q-5.22,9.24-15.15,9.25a10.93,10.93,0,0,1-2.6-.25,109,109,0,0,1,5.78-19.64c2.29-5.53,4.64-9.68,7-12.44s4.43-4.15,6.15-4.15c2.38,0,3.64,2.23,3.81,6.63A39.84,39.84,0,0,1,465.3,686.4Z"/><path class="cls-3" d="M657.21,665.82a25.23,25.23,0,0,0-1.68-4.51,32.47,32.47,0,0,0-10.77-12.19q-13.5-9.58-43.56-9.59-28.65,0-48.67,14.79a60.43,60.43,0,0,0-10.55,10q-11.19,13.43-15.36,34a89.55,89.55,0,0,0-1.84,14.25c0,.8,0,1.57,0,2.31q0,25.34,16.8,38.59t43.09,13.26q17.76,0,30.3-6.39a58.09,58.09,0,0,0,13.73-9.44,39.76,39.76,0,0,0,5.21-6.06c.69-1,1.33-2,1.91-2.94q4.46-7.51,4.26-14.47c0-2.05-.88-3.08-2.62-3.08-1.57,0-4.58.79-9,2.38-5.37,1.74-9.8,3-13.26,3.91a45.26,45.26,0,0,1-10.9,1.29q-12.28,0-19.16-5t-6.63-17.29A143.62,143.62,0,0,0,599.3,711q22,0,38.23-6.73T657.3,681.9a33.56,33.56,0,0,0,1-8.28A28.76,28.76,0,0,0,657.21,665.82ZM597.87,686.4q-5.21,9.24-15.15,9.25a11,11,0,0,1-2.6-.25,110.58,110.58,0,0,1,5.8-19.64q3.44-8.29,7-12.44c2.36-2.75,4.41-4.15,6.15-4.15,2.38,0,3.64,2.23,3.79,6.63A39.36,39.36,0,0,1,597.87,686.4Z"/><path class="cls-3" d="M814.51,686.64a45.58,45.58,0,0,0,2.36-14.43q0-14-8.87-22.73t-23.33-8.77A53.16,53.16,0,0,0,761,646q-10.87,5.31-20.6,19.3.72-11.6-6.15-18.12t-18.7-6.51a95.62,95.62,0,0,0-28.19,4.14q-13.47,4.15-14.91,9.59a6.71,6.71,0,0,0-.29,1.86v0a3.34,3.34,0,0,0,.53,1.91l.36.48a18.48,18.48,0,0,0,3,2.84,25.65,25.65,0,0,1,3.44,3.55,6.6,6.6,0,0,1,1.07,4,8.78,8.78,0,0,1-.48,3.3L659,740.86q-1.68,5.68-4,8.29a21.54,21.54,0,0,1-5.92,4.49,4.36,4.36,0,0,0-.59.35c-2.34,1.34-3.8,2.87-4.39,4.63a4.88,4.88,0,0,0-.12,1.13,4.76,4.76,0,0,0,2.13,4.19q2.75,2,8.89,2h54c5.05,0,8.75-.46,11.13-1.41a7.08,7.08,0,0,0,4.49-4.51,3.47,3.47,0,0,0-.24-2.84,11.13,11.13,0,0,0-2.36-2.6,19.07,19.07,0,0,1-3.32-3.67,8.17,8.17,0,0,1-1.17-4.61,14.57,14.57,0,0,1,.94-5L733.06,693a28.62,28.62,0,0,1,6.88-11.95c3.15-3.24,6.45-4.86,9.93-4.86a7.13,7.13,0,0,1,4.86,1.78,6.13,6.13,0,0,1,2,4.85,14.43,14.43,0,0,1-1.19,5l-13,34.09q-4.27,10.91-4.27,19.65a24,24,0,0,0,9.47,19.3q9.24,7.21,24.86,7.22,12.78,0,21.9-4.15t13.85-10.64a21,21,0,0,0,4.49-13.38,8.56,8.56,0,0,0-.7-3.67c-.47-1-1.11-1.55-1.9-1.55-.46,0-1.37.83-2.72,2.5a6.07,6.07,0,0,1-4.85,2.48,2.78,2.78,0,0,1-2.24-.95,3.75,3.75,0,0,1-.83-2.6,6.69,6.69,0,0,1,.47-2.84Z"/><path class="cls-4" d="M833.37,785c-36.32,91-122.59,155.11-223.22,155.11H263.85C163.22,940.06,77,876,40.65,785c-2.27-5.7,1.72-12,7.64-12H69.84a79.41,79.41,0,0,0,29.37,11.27l1.24,3.67c13,39.31,38.49,47.56,57.55,47.56,12.93,0,24.11-3.48,33.22-10.35s15.43-16.32,18.8-28a65,65,0,0,0,2.6-18.37c0-2-.09-3.93-.24-5.75H825.72C831.63,773,835.62,779.26,833.37,785Z"/><path class="cls-3" d="M866.34,309.69c-1.92,2-7.78,7.93-10.12,8.74a5.44,5.44,0,0,1-6.27-2.11L792.14,340.7A446.7,446.7,0,0,0,742.69,279c-75.51-78.57-174.07-124.5-279.85-130.94l-7.58-60a5.39,5.39,0,0,1-5.16-4.36c-.49-2.44,1.7-10.47,2.48-13.15a.49.49,0,0,1,.84-.18c1.74,2.21,6.84,8.77,7.32,11.21a5.46,5.46,0,0,1-2.62,5.77c12.74,25.18,54.72,89.47,117.32-2A5.46,5.46,0,0,1,573,79.25c.66-2.39,6.24-8.57,8.13-10.64a.48.48,0,0,1,.81.24c.57,2.72,2.19,10.89,1.53,13.28a5.38,5.38,0,0,1-4.52,3.94c-5.1,50.52,36.6,135.07,149.19-19.71a9.69,9.69,0,0,1-1.42-11.54c2.21-3.82,14.57-12,18.74-14.69a.89.89,0,0,1,.89,0,.83.83,0,0,1,.43.78c-.24,5-1.12,19.75-3.32,23.59A9.66,9.66,0,0,1,732.74,69c-78.18,176.39,18,168.59,58.68,138.27a5.38,5.38,0,0,1,.88-6.61c1.77-1.74,9.68-4.31,12.35-5.15a.48.48,0,0,1,.6.6c-.88,2.67-3.57,10.54-5.34,12.28a5.43,5.43,0,0,1-6.49.86c-48.73,100.44,26.71,105.45,55.62,104a5.42,5.42,0,0,1,3.67-5.1c2.36-.79,10.6.33,13.36.74A.47.47,0,0,1,866.34,309.69Z"/><path class="cls-3" d="M172.51,491.39q8.55,3.48,13,9.48A22.49,22.49,0,0,1,190,514.68a26.64,26.64,0,0,1-1.19,8.12q-4.9,17.12-28.27,21.68a26.21,26.21,0,0,1,12.87,7.87A20.2,20.2,0,0,1,178.19,566a35.1,35.1,0,0,1-1.36,8.81q-3.72,13.2-15,19.56t-31.92,6.34H59.49A10.67,10.67,0,0,1,54,599.51,3.63,3.63,0,0,1,52,596.29a6.89,6.89,0,0,1,2.71-5.08c1-.68,1.63-1.07,1.86-1.18a23,23,0,0,0,4.4-3.47,14.42,14.42,0,0,0,2.88-5.85l20.66-73a14.38,14.38,0,0,0,.67-4.23,7.29,7.29,0,0,0-.59-3.13,31.1,31.1,0,0,0-1.61-3,6.94,6.94,0,0,1-1.52-3.55,9,9,0,0,1,.34-1.86,4.81,4.81,0,0,1,3-3.14,19.86,19.86,0,0,1,7-.93h60.62A53.21,53.21,0,0,1,172.51,491.39Zm-38.86,69.85q0-9.15-10.5-9.14h-8.46L105,585.45h8.63q7.27,0,11.69-3.64t7.11-13.12A26.76,26.76,0,0,0,133.65,561.24ZM146,512q0-8.81-10-8.81H128.4l-9,31.66h7.45q7.11,0,11.26-3.47t6.69-12.44A23,23,0,0,0,146,512Z"/><path class="cls-3" d="M285.88,577.33a9,9,0,0,0-.34,2,2.75,2.75,0,0,0,.59,1.86,2,2,0,0,0,1.61.68,4.31,4.31,0,0,0,3.47-1.78c1-1.18,1.61-1.78,2-1.78.56,0,1,.37,1.44,1.1a5.55,5.55,0,0,1,.59,2.63,14.5,14.5,0,0,1-3.39,9.4,26.57,26.57,0,0,1-10,7.7,33.21,33.21,0,0,1-14.39,3.05q-10,0-15.92-4.06a18.1,18.1,0,0,1-7.62-10.67,42.47,42.47,0,0,1-13.46,10.24,34.71,34.71,0,0,1-15,3.47q-11.87,0-19.9-5.84t-8-16.34a31,31,0,0,1,1.69-9.82L200,533.81a8.34,8.34,0,0,0,.51-2.54,4.75,4.75,0,0,0-.85-3,11.49,11.49,0,0,0-2.54-2.29,11.34,11.34,0,0,1-2.37-2.37,3.13,3.13,0,0,1-.17-2.71q1-3.9,10.67-6.86a68.42,68.42,0,0,1,20.15-3q9.81,0,14.39,3.72A12.42,12.42,0,0,1,244.39,525a23.38,23.38,0,0,1-1.18,7.45l-10.67,35.23a10.4,10.4,0,0,0-.68,3.55,4.46,4.46,0,0,0,1.36,3.56,5.18,5.18,0,0,0,3.55,1.18,7.46,7.46,0,0,0,5.25-1.86,19.89,19.89,0,0,0,4.07-6.27l10.32-34a8.34,8.34,0,0,0,.51-2.54,4.75,4.75,0,0,0-.84-3,13.38,13.38,0,0,0-2.37-2.29,11.34,11.34,0,0,1-2.37-2.37,3.1,3.1,0,0,1-.17-2.71q.84-3.9,10.49-6.86a68.47,68.47,0,0,1,20.15-3q9.82,0,14.48,3.72a12.14,12.14,0,0,1,4.66,10,26.25,26.25,0,0,1-1.36,7.62Z"/><path class="cls-3" d="M399.75,516.88a19.48,19.48,0,0,1,5.67,14.22,24.52,24.52,0,0,1-.67,5.93,18.64,18.64,0,0,1-6.44,10.66A17.76,17.76,0,0,1,387,551.42q-6.45,0-9.74-3a27.78,27.78,0,0,1-5.84-8.13,19.4,19.4,0,0,0-2.54-4.23,3.53,3.53,0,0,0-2.71-1.35,3.93,3.93,0,0,0-3,1.35,12.29,12.29,0,0,0-2.29,4.74l-13,42.33a7.17,7.17,0,0,0-.34,2.54,5.31,5.31,0,0,0,1.27,3.64,15.42,15.42,0,0,0,3.47,2.8,12.67,12.67,0,0,1,2.71,2.2,2.85,2.85,0,0,1,.51,2.2,4.11,4.11,0,0,1-2.45,3.22c-1.42.68-3.81,1-7.2,1H302.47c-2.93,0-5.05-.47-6.35-1.43a3.48,3.48,0,0,1-1.44-3.81,6.75,6.75,0,0,1,3.56-3.56,12.85,12.85,0,0,0,7.11-9.14l15.07-48.94a6.5,6.5,0,0,0,.34-2.37,4.79,4.79,0,0,0-.76-2.88,19.59,19.59,0,0,0-2.46-2.54,11.34,11.34,0,0,1-2.37-2.37,3.13,3.13,0,0,1-.17-2.71q1-3.9,10.67-6.86a68.42,68.42,0,0,1,20.15-3,19.87,19.87,0,0,1,11.51,3.13,14.33,14.33,0,0,1,5.93,8.89q8.13-12,21.34-12Q394.08,511.12,399.75,516.88Z"/><path class="cls-3" d="M512.69,485.8a22.81,22.81,0,0,1,8.47,6.27,13.14,13.14,0,0,1,3.3,8.55q0,10-13.54,10a23.8,23.8,0,0,1-6-.59,32.83,32.83,0,0,1-5-1.95,8.88,8.88,0,0,0-.51,3.39,27.07,27.07,0,0,0,.93,6.43,46.28,46.28,0,0,0,2.29,6.94,21.84,21.84,0,0,1,3.55,12.53,44.08,44.08,0,0,1-.84,7.79,34.65,34.65,0,0,1-8.89,16.09,46.86,46.86,0,0,1-17.61,11.43,65,65,0,0,1-23.62,4.15,119.63,119.63,0,0,1-18.46-1.35,6.89,6.89,0,0,0-2.54,5.41,4.31,4.31,0,0,0,2,3.64c1.36,1,3.61,1.44,6.77,1.44h25.4q13,0,20.32,4.49A14.18,14.18,0,0,1,496,603.23a21,21,0,0,1-1,6.27q-2,6.6-9.23,12.28T465.53,631q-13,3.56-31.66,3.55-16.59,0-28.11-2.88t-17.19-7.87q-5.67-5-5.67-11.09a18.68,18.68,0,0,1,.68-4.07,14.27,14.27,0,0,1,6.86-8q5.32-3.14,17.52-4.15a12.43,12.43,0,0,1-4.06-9.31,16.08,16.08,0,0,1,.51-3.9q2.7-8.81,15.91-13-12.69-6.93-12.7-20.31a32,32,0,0,1,1-7.79,33.7,33.7,0,0,1,9-16,49.07,49.07,0,0,1,17.78-11.43,64.49,64.49,0,0,1,23.71-4.24q20.14,0,31.67,5.25a34,34,0,0,1-4-8.38,26.77,26.77,0,0,1-1.44-8.21,15.8,15.8,0,0,1,4.15-11q4.14-4.57,12.61-4.57A25.94,25.94,0,0,1,512.69,485.8Zm-81,117.27a67,67,0,0,1-8.64-.51,10.54,10.54,0,0,0-2,6.77,6.81,6.81,0,0,0,3.47,6.1q3.3,1.86,10.25,1.86,8.46,0,13.8-2.54t5.33-7.28a3.87,3.87,0,0,0-1.52-3.22,7.08,7.08,0,0,0-4.41-1.18Zm36.41-72.65q0-5.74-4.92-5.75c-2.82,0-5.28,1.38-7.36,4.14s-4.21,7.71-6.35,14.82q-2.71,8.8-2.71,13.38c0,3.72,1.58,5.59,4.74,5.59,2.82,0,5.31-1.41,7.45-4.24s4.29-7.73,6.44-14.73Q468.07,535,468.08,530.42Z"/><path class="cls-3" d="M607.6,577.33a9,9,0,0,0-.34,2,2.7,2.7,0,0,0,.6,1.86,2,2,0,0,0,1.6.68,4.34,4.34,0,0,0,3.48-1.78c.95-1.18,1.6-1.78,1.94-1.78.57,0,1,.37,1.44,1.1a5.43,5.43,0,0,1,.59,2.63,14.49,14.49,0,0,1-3.38,9.4,26.57,26.57,0,0,1-10,7.7,33.25,33.25,0,0,1-14.4,3.05q-10,0-15.91-4.06a18,18,0,0,1-7.62-10.67,42.58,42.58,0,0,1-13.46,10.24,34.75,34.75,0,0,1-15,3.47q-11.85,0-19.9-5.84t-8-16.34a31,31,0,0,1,1.69-9.82l10.84-35.39a8.34,8.34,0,0,0,.51-2.54,4.69,4.69,0,0,0-.85-3,11.27,11.27,0,0,0-2.54-2.29,11.34,11.34,0,0,1-2.37-2.37,3.13,3.13,0,0,1-.17-2.71q1-3.9,10.67-6.86a68.42,68.42,0,0,1,20.15-3q9.83,0,14.39,3.72A12.43,12.43,0,0,1,566.12,525a23.39,23.39,0,0,1-1.19,7.45l-10.67,35.23a10.4,10.4,0,0,0-.68,3.55,4.5,4.5,0,0,0,1.36,3.56A5.2,5.2,0,0,0,558.5,576a7.45,7.45,0,0,0,5.24-1.86,19.89,19.89,0,0,0,4.07-6.27l10.33-34a8.34,8.34,0,0,0,.51-2.54,4.75,4.75,0,0,0-.85-3,13,13,0,0,0-2.37-2.29,11.34,11.34,0,0,1-2.37-2.37,3.13,3.13,0,0,1-.17-2.71q.84-3.9,10.5-6.86a68.42,68.42,0,0,1,20.15-3q9.81,0,14.47,3.72a12.14,12.14,0,0,1,4.66,10,26.54,26.54,0,0,1-1.35,7.62Z"/><path class="cls-3" d="M711.74,517.13q9.64,6.86,9.65,17.53a24.42,24.42,0,0,1-.68,5.92q-2.54,11.17-14.14,16t-27.34,4.83a102.51,102.51,0,0,1-14.9-1c-.12,5.88,1.46,10,4.74,12.37s7.84,3.55,13.71,3.55a32,32,0,0,0,7.79-.93q3.72-.93,9.48-2.79a24.21,24.21,0,0,1,6.44-1.7c1.24,0,1.86.74,1.86,2.2q.17,5.94-4.4,12.45T690.4,596.63q-9,4.57-21.67,4.57-18.79,0-30.82-9.48t-12-27.6a61.57,61.57,0,0,1,1.35-11.85q4.23-20.84,18.54-31.42t34.8-10.58Q702.09,510.27,711.74,517.13ZM667.37,550.4q7.11,0,10.84-6.6a28.27,28.27,0,0,0,3.56-14.73q-.18-4.74-2.71-4.74c-1.25,0-2.71,1-4.41,3a33.75,33.75,0,0,0-5,8.89,79.1,79.1,0,0,0-4.15,14.05A7.62,7.62,0,0,0,667.37,550.4Z"/><path class="cls-3" d="M816.3,516.88A19.48,19.48,0,0,1,822,531.1a24.51,24.51,0,0,1-.68,5.93,18.63,18.63,0,0,1-6.43,10.66,17.77,17.77,0,0,1-11.35,3.73q-6.43,0-9.73-3a27.78,27.78,0,0,1-5.84-8.13A19.8,19.8,0,0,0,785.4,536a3.56,3.56,0,0,0-2.71-1.35,4,4,0,0,0-3,1.35,12.3,12.3,0,0,0-2.28,4.74l-13,42.33a7.17,7.17,0,0,0-.34,2.54,5.26,5.26,0,0,0,1.27,3.64,15.2,15.2,0,0,0,3.47,2.8,12.67,12.67,0,0,1,2.71,2.2,2.85,2.85,0,0,1,.51,2.2,4.13,4.13,0,0,1-2.46,3.22c-1.41.68-3.81,1-7.19,1H719c-2.94,0-5-.47-6.35-1.43a3.48,3.48,0,0,1-1.44-3.81,6.75,6.75,0,0,1,3.56-3.56,12.85,12.85,0,0,0,7.11-9.14L737,533.81a6.72,6.72,0,0,0,.34-2.37,4.72,4.72,0,0,0-.77-2.88,18.74,18.74,0,0,0-2.45-2.54,11.34,11.34,0,0,1-2.37-2.37,3.13,3.13,0,0,1-.17-2.71q1-3.9,10.67-6.86a68.42,68.42,0,0,1,20.15-3,19.91,19.91,0,0,1,11.51,3.13,14.37,14.37,0,0,1,5.93,8.89q8.13-12,21.33-12Q810.62,511.12,816.3,516.88Z"/><path class="cls-4" d="M825.34,479.63H48.66c-5.57,0-9.56-5.62-7.92-11.15,52.31-176.07,209.94-304,396.27-304q14.13,0,28,1a395.83,395.83,0,0,1,42.48,5.23C593.79,186.1,671,229.22,730.28,291c9.81,10.21,19.14,21,27.93,32.15Q767.52,335,776,347.5a437.74,437.74,0,0,1,57.24,121C834.92,474,830.91,479.63,825.34,479.63Z"/></g></g></svg>