<svg width="51" height="51" viewBox="0 0 51 51" fill="none" xmlns="http://www.w3.org/2000/svg">
<mask id="mask0_7_67" style="mask-type:alpha" maskUnits="userSpaceOnUse" x="0" y="0" width="51" height="51">
<rect x="0.181885" y="0.363647" width="50" height="50" fill="#D9D9D9"/>
</mask>
<g mask="url(#mask0_7_67)">
<path d="M10.5985 39.947C10.0082 39.947 9.5134 39.7474 9.1141 39.348C8.71479 38.9487 8.51514 38.4539 8.51514 37.8637C8.51514 37.2734 8.71479 36.7786 9.1141 36.3793C9.5134 35.98 10.0082 35.7803 10.5985 35.7803H12.6818V21.197C12.6818 18.3151 13.5499 15.7543 15.286 13.5147C17.0221 11.2751 19.279 9.80811 22.0568 9.11367V7.65533C22.0568 6.78728 22.3606 6.04943 22.9683 5.44179C23.5759 4.83415 24.3137 4.53033 25.1818 4.53033C26.0499 4.53033 26.7877 4.83415 27.3953 5.44179C28.003 6.04943 28.3068 6.78728 28.3068 7.65533V9.11367C31.0846 9.80811 33.3415 11.2751 35.0776 13.5147C36.8137 15.7543 37.6818 18.3151 37.6818 21.197V35.7803H39.7651C40.3554 35.7803 40.8502 35.98 41.2495 36.3793C41.6488 36.7786 41.8485 37.2734 41.8485 37.8637C41.8485 38.4539 41.6488 38.9487 41.2495 39.348C40.8502 39.7474 40.3554 39.947 39.7651 39.947H10.5985ZM25.1818 46.197C24.036 46.197 23.0551 45.789 22.2391 44.973C21.4231 44.1571 21.0151 43.1762 21.0151 42.0303H29.3485C29.3485 43.1762 28.9405 44.1571 28.1245 44.973C27.3085 45.789 26.3276 46.197 25.1818 46.197ZM16.8485 35.7803H33.5151V21.197C33.5151 18.9053 32.6992 16.9435 31.0672 15.3116C29.4353 13.6796 27.4735 12.8637 25.1818 12.8637C22.8901 12.8637 20.9283 13.6796 19.2964 15.3116C17.6644 16.9435 16.8485 18.9053 16.8485 21.197V35.7803Z" fill="white"/>
</g>
</svg>
