<svg width="80" height="80" viewBox="0 0 80 80" fill="none" xmlns="http://www.w3.org/2000/svg">
<mask id="mask0_3_19" style="mask-type:alpha" maskUnits="userSpaceOnUse" x="0" y="0" width="80" height="80">
<rect width="80" height="80" fill="#D9D9D9"/>
</mask>
<g mask="url(#mask0_3_19)">
<path d="M16.6666 73.3334C14.8333 73.3334 13.2638 72.6806 11.9583 71.375C10.6527 70.0695 9.99996 68.5 9.99996 66.6667V29.0834C8.99996 28.4722 8.1944 27.6806 7.58329 26.7084C6.97218 25.7361 6.66663 24.6111 6.66663 23.3334V13.3334C6.66663 11.5 7.3194 9.93058 8.62496 8.62502C9.93051 7.31946 11.5 6.66669 13.3333 6.66669H66.6666C68.5 6.66669 70.0694 7.31946 71.375 8.62502C72.6805 9.93058 73.3333 11.5 73.3333 13.3334V23.3334C73.3333 24.6111 73.0277 25.7361 72.4166 26.7084C71.8055 27.6806 71 28.4722 70 29.0834V66.6667C70 68.5 69.3472 70.0695 68.0416 71.375C66.7361 72.6806 65.1666 73.3334 63.3333 73.3334H16.6666ZM16.6666 30V66.6667H63.3333V30H16.6666ZM13.3333 23.3334H66.6666V13.3334H13.3333V23.3334ZM33.3333 46.6667H46.6666C47.6111 46.6667 48.4027 46.3472 49.0416 45.7084C49.6805 45.0695 50 44.2778 50 43.3334C50 42.3889 49.6805 41.5972 49.0416 40.9584C48.4027 40.3195 47.6111 40 46.6666 40H33.3333C32.3888 40 31.5972 40.3195 30.9583 40.9584C30.3194 41.5972 30 42.3889 30 43.3334C30 44.2778 30.3194 45.0695 30.9583 45.7084C31.5972 46.3472 32.3888 46.6667 33.3333 46.6667Z" fill="#E80088"/>
</g>
</svg>
